<?xml version="1.0" encoding="UTF-8" standalone="no"?>
<!-- Created with Inkscape (http://www.inkscape.org/) -->

<svg
   width="210mm"
   height="297mm"
   viewBox="0 0 210 297"
   version="1.1"
   id="svg1"
   xml:space="preserve"
   inkscape:version="1.4.2 (f4327f4, 2025-05-13)"
   sodipodi:docname="fita_campanha.svg"
   xmlns:inkscape="http://www.inkscape.org/namespaces/inkscape"
   xmlns:sodipodi="http://sodipodi.sourceforge.net/DTD/sodipodi-0.dtd"
   xmlns="http://www.w3.org/2000/svg"
   xmlns:svg="http://www.w3.org/2000/svg"><sodipodi:namedview
     id="namedview1"
     pagecolor="#ffffff"
     bordercolor="#000000"
     borderopacity="0.25"
     inkscape:showpageshadow="2"
     inkscape:pageopacity="0.0"
     inkscape:pagecheckerboard="0"
     inkscape:deskcolor="#d1d1d1"
     inkscape:document-units="mm"
     inkscape:zoom="1.0167041"
     inkscape:cx="518.83337"
     inkscape:cy="564.0776"
     inkscape:window-width="1920"
     inkscape:window-height="1009"
     inkscape:window-x="-8"
     inkscape:window-y="29"
     inkscape:window-maximized="1"
     inkscape:current-layer="layer1" /><defs
     id="defs1" /><g
     inkscape:label="Camada 1"
     inkscape:groupmode="layer"
     id="layer1"><g
       id="g8"><path
         style="opacity:1;fill:#00112b;stroke-width:0.264583"
         d="m 76.812382,120.01697 c 2.572363,-1.82916 4.195089,2.97047 5.549437,0.47039 5.794048,-10.69558 19.625881,-12.3316 33.628901,-4.82459 2.59532,1.39135 4.97988,2.12092 7.4324,3.96534 C 120.25582,99.556686 108.27577,98.139209 100.1213,98.480393 81.074881,97.026179 79.399583,110.80995 76.812382,120.01697 Z"
         id="path8"
         sodipodi:nodetypes="cssccc" /><path
         style="opacity:1;fill:#214478;stroke-width:0.264583"
         d="m 81.334572,106.91264 c 11.883982,38.22338 36.357308,67.577 55.020448,101.02416 -0.2062,4.91113 -3.6754,7.58477 -6.80855,10.48885 -3.37053,2.27079 -6.43744,3.80425 -9.20075,4.60037 L 76.182156,134.51487 c -0.971637,-9.63447 0.745835,-18.83521 5.152416,-27.60223 z"
         id="path7"
         sodipodi:nodetypes="cccccc" /><path
         style="opacity:1;fill:#162d50;stroke-width:0.264583"
         d="m 118.97834,106.91264 c -11.88398,38.22338 -36.357316,67.577 -55.020456,101.02416 0.2062,4.91113 3.6754,7.58477 6.80855,10.48885 3.37053,2.27079 6.43744,3.80425 9.20075,4.60037 l 44.163566,-88.51115 c 0.97164,-9.63447 -0.74583,-18.83521 -5.15241,-27.60223 z"
         id="path7-5"
         sodipodi:nodetypes="cccccc" /></g></g></svg>
