<?xml version="1.0" encoding="UTF-8" standalone="no"?>
<!-- Created with Inkscape (http://www.inkscape.org/) -->

<svg
   width="210mm"
   height="297mm"
   viewBox="0 0 210 297"
   version="1.1"
   id="svg1"
   xml:space="preserve"
   inkscape:version="1.4.2 (f4327f4, 2025-05-13)"
   sodipodi:docname="Logo_Barriguda_Web_tv_Original.svg"
   xmlns:inkscape="http://www.inkscape.org/namespaces/inkscape"
   xmlns:sodipodi="http://sodipodi.sourceforge.net/DTD/sodipodi-0.dtd"
   xmlns:xlink="http://www.w3.org/1999/xlink"
   xmlns="http://www.w3.org/2000/svg"
   xmlns:svg="http://www.w3.org/2000/svg"><sodipodi:namedview
     id="namedview1"
     pagecolor="#ffffff"
     bordercolor="#000000"
     borderopacity="0.25"
     inkscape:showpageshadow="2"
     inkscape:pageopacity="0.0"
     inkscape:pagecheckerboard="0"
     inkscape:deskcolor="#d1d1d1"
     inkscape:document-units="mm"
     showguides="true"
     inkscape:zoom="0.44809904"
     inkscape:cx="641.59923"
     inkscape:cy="719.70696"
     inkscape:window-width="1920"
     inkscape:window-height="1009"
     inkscape:window-x="-8"
     inkscape:window-y="-8"
     inkscape:window-maximized="1"
     inkscape:current-layer="layer1"><sodipodi:guide
       position="50.631709,156.92328"
       orientation="0,-1"
       id="guide1"
       inkscape:locked="false" /><sodipodi:guide
       position="46.055665,154.69981"
       orientation="0,-1"
       id="guide2"
       inkscape:locked="false" /><sodipodi:guide
       position="34.627757,165.62326"
       orientation="1,0"
       id="guide3"
       inkscape:locked="false" /><sodipodi:guide
       position="91.520873,234.72484"
       orientation="0,-1"
       id="guide4"
       inkscape:locked="false" /><sodipodi:guide
       position="106.88417,209.73909"
       orientation="1,0"
       id="guide5"
       inkscape:locked="false" /><sodipodi:guide
       position="109.91117,234.72485"
       orientation="1,0"
       id="guide6"
       inkscape:locked="false" /><sodipodi:guide
       position="179.74078,188.86328"
       orientation="1,0"
       id="guide7"
       inkscape:locked="false" /><sodipodi:guide
       position="55.529671,94.400203"
       orientation="0,-1"
       id="guide8"
       inkscape:locked="false" /><sodipodi:guide
       position="173.59443,144.07157"
       orientation="1,0"
       id="guide9"
       inkscape:locked="false" /><sodipodi:guide
       position="136.52784,51.917916"
       orientation="0,-1"
       id="guide32"
       inkscape:locked="false" /><sodipodi:guide
       position="124.00235,33.964713"
       orientation="0,-1"
       id="guide33"
       inkscape:locked="false" /></sodipodi:namedview><defs
     id="defs1"><linearGradient
       id="linearGradient18"
       inkscape:collect="always"><stop
         style="stop-color:#ff871f;stop-opacity:1;"
         offset="0"
         id="stop18" /><stop
         style="stop-color:#9b5113;stop-opacity:1;"
         offset="1"
         id="stop19" /></linearGradient><linearGradient
       id="linearGradient16"
       inkscape:collect="always"><stop
         style="stop-color:#009a27;stop-opacity:1;"
         offset="0"
         id="stop16" /><stop
         style="stop-color:#005115;stop-opacity:1;"
         offset="1"
         id="stop17" /></linearGradient><linearGradient
       id="linearGradient14"
       inkscape:collect="always"><stop
         style="stop-color:#ffb929;stop-opacity:1;"
         offset="0"
         id="stop14" /><stop
         style="stop-color:#a07418;stop-opacity:1;"
         offset="1"
         id="stop15" /></linearGradient><linearGradient
       id="linearGradient12"
       inkscape:collect="always"><stop
         style="stop-color:#007764;stop-opacity:1;"
         offset="0"
         id="stop12" /><stop
         style="stop-color:#00564c;stop-opacity:1;"
         offset="1"
         id="stop13" /></linearGradient><inkscape:path-effect
       effect="fillet_chamfer"
       id="path-effect12"
       is_visible="true"
       lpeversion="1"
       nodesatellites_param="F,0,0,1,0,0,0,1 @ F,0,0,1,0,0,0,1 @ F,0,0,1,0,8.5602869,0,1 @ F,0,0,1,0,0,0,1"
       radius="0"
       unit="px"
       method="auto"
       mode="F"
       chamfer_steps="1"
       flexible="false"
       use_knot_distance="true"
       apply_no_radius="true"
       apply_with_radius="true"
       only_selected="false"
       hide_knots="false" /><inkscape:path-effect
       effect="fillet_chamfer"
       id="path-effect11"
       is_visible="true"
       lpeversion="1"
       nodesatellites_param="F,0,0,1,0,0,0,1 @ F,0,0,1,0,9.2905278,0,1 @ F,0,0,1,0,0,0,1 @ F,0,0,1,0,0,0,1"
       radius="0"
       unit="px"
       method="auto"
       mode="F"
       chamfer_steps="1"
       flexible="false"
       use_knot_distance="true"
       apply_no_radius="true"
       apply_with_radius="true"
       only_selected="false"
       hide_knots="false" /><inkscape:path-effect
       effect="fillet_chamfer"
       id="path-effect9"
       is_visible="true"
       lpeversion="1"
       nodesatellites_param="F,0,0,1,0,0,0,1 @ F,0,0,1,0,0,0,1 @ F,0,0,1,0,0,0,1 @ F,0,0,1,0,8.4655968,0,1"
       radius="0"
       unit="px"
       method="auto"
       mode="F"
       chamfer_steps="1"
       flexible="false"
       use_knot_distance="true"
       apply_no_radius="true"
       apply_with_radius="true"
       only_selected="false"
       hide_knots="false" /><inkscape:path-effect
       effect="fillet_chamfer"
       id="path-effect1"
       is_visible="true"
       lpeversion="1"
       nodesatellites_param="F,0,0,1,0,9.4697919,0,1 @ F,0,0,1,0,0,0,1 @ F,0,0,1,0,0,0,1 @ F,0,0,1,0,0,0,1"
       radius="0"
       unit="px"
       method="auto"
       mode="F"
       chamfer_steps="1"
       flexible="false"
       use_knot_distance="true"
       apply_no_radius="true"
       apply_with_radius="true"
       only_selected="false"
       hide_knots="false" /><linearGradient
       inkscape:collect="always"
       xlink:href="#linearGradient12"
       id="linearGradient13"
       x1="90.432793"
       y1="70.876289"
       x2="51.079128"
       y2="131.47562"
       gradientUnits="userSpaceOnUse" /><linearGradient
       inkscape:collect="always"
       xlink:href="#linearGradient14"
       id="linearGradient15"
       x1="109.91117"
       y1="94.704437"
       x2="179.74078"
       y2="94.704437"
       gradientUnits="userSpaceOnUse" /><linearGradient
       inkscape:collect="always"
       xlink:href="#linearGradient16"
       id="linearGradient17"
       x1="48.019753"
       y1="144.37312"
       x2="93.492165"
       y2="200.52687"
       gradientUnits="userSpaceOnUse" /><linearGradient
       inkscape:collect="always"
       xlink:href="#linearGradient18"
       id="linearGradient19"
       x1="173.59445"
       y1="165.73355"
       x2="109.91118"
       y2="165.73355"
       gradientUnits="userSpaceOnUse" /></defs><g
     inkscape:label="Camada 1"
     inkscape:groupmode="layer"
     id="layer1"><g
       id="g12"
       transform="translate(-198.73778,-60.542312)"
       inkscape:export-filename="D:\Barriguda WEB TV\Logos\Logo_Barriguda_Moderna.png"
       inkscape:export-xdpi="300"
       inkscape:export-ydpi="300"><path
         style="opacity:1;fill:url(#linearGradient13);stroke-width:0.288812"
         id="rect1"
         width="72.256416"
         height="77.801559"
         x="34.627758"
         y="62.275169"
         inkscape:path-effect="#path-effect1"
         sodipodi:type="rect"
         d="m 44.09755,62.275169 h 62.78662 V 140.07673 H 34.627758 V 71.744961 a 9.4697919,9.4697919 135 0 1 9.469792,-9.469792 z"
         transform="matrix(1,0,0,1.0285789,198.73778,58.655741)" /><path
         style="opacity:1;fill:url(#linearGradient17);fill-opacity:1;stroke-width:0.288396"
         id="rect9"
         width="72.256409"
         height="60.299606"
         x="34.627754"
         y="142.3002"
         inkscape:path-effect="#path-effect9"
         sodipodi:type="rect"
         d="m 34.627754,142.3002 h 72.256406 v 60.29961 H 43.093351 a 8.4655968,8.4655968 45 0 1 -8.465597,-8.4656 z"
         transform="translate(198.73778,60.435495)" /><path
         style="opacity:1;fill:url(#linearGradient19);stroke-width:0.328066"
         id="rect10"
         width="63.683262"
         height="73.732506"
         x="109.91117"
         y="128.86729"
         inkscape:path-effect="#path-effect12"
         sodipodi:type="rect"
         d="m 109.91117,128.86729 h 63.68326 v 65.17222 a 8.5602869,8.5602869 135 0 1 -8.56028,8.56029 h -55.12298 z"
         transform="matrix(1.1440466,0,0,1,179.87844,60.435495)" /><path
         style="opacity:1;fill:url(#linearGradient15);stroke-width:0.288396"
         id="rect11"
         width="69.829613"
         height="64.858559"
         x="109.91117"
         y="62.275158"
         inkscape:path-effect="#path-effect11"
         sodipodi:type="rect"
         d="m 109.91117,62.275158 h 60.53909 a 9.2905278,9.2905278 45 0 1 9.29052,9.290528 v 55.568034 h -69.82961 z"
         transform="matrix(1.0433484,0,0,1.0279227,190.9463,58.696601)" /></g><path
       style="fill:#ffffff"
       d="m 90.264374,202.55794 c -0.0748,-0.12097 1.20154,-1.34785 2.45795,-2.36276 1.93146,-1.56021 3.43241,-3.30839 4.06114,-4.73004 0.75481,-1.70678 1.10325,-3.87923 0.90063,-5.61538 -0.2994,-2.56553 -0.61617,-3.44916 -3.94711,-11.01046 -2.18855,-4.96804 -3.0375,-7.80171 -3.29538,-10.99945 -0.3017,-3.74116 0.89595,-7.4083 3.39054,-10.38164 0.55996,-0.66743 0.86316,-0.99312 3.32563,-3.5724 1.19163,-1.24816 2.4494,-2.71823 2.909546,-3.40066 0.15932,-0.23629 0.27967,-0.56389 0.27967,-0.76128 0,-0.394 -0.688346,-2.45784 -1.171876,-3.51356 -1.48445,-3.24108 -4.18817,-6.13786 -7.52719,-8.06467 -3.10523,-1.79189 -7.87682,-2.92173 -11.45567,-2.71255 -2.91311,0.17028 -3.77614,0.38602 -10.25466,2.56342 -4.73755,1.59227 -9.58309,3.03826 -11.25249,3.35792 -2.44935,0.469 -2.91647,0.47521 -2.63884,0.0351 0.10576,-0.16765 1.52151,-0.93652 2.50172,-1.35863 0.695,-0.2993 1.58209,-0.69054 2.11861,-0.9344 0.50471,-0.2294 3.01294,-1.31834 4.48959,-1.94914 0.49854,-0.21297 1.05039,-0.455 1.22635,-0.53786 0.67163,-0.31625 4.41972,-1.96488 5.43858,-2.39221 0.58651,-0.24599 1.21035,-0.51192 1.3863,-0.59095 0.17596,-0.079 0.5897,-0.26239 0.91944,-0.40745 1.08147,-0.47579 0.97911,-0.56491 -1.13272,-0.98619 -2.42033,-0.48283 -3.55614,-0.85336 -5.55313,-1.81158 -1.58747,-0.76171 -2.73213,-1.61354 -3.63971,-2.70856 -1.16663,-1.40757 -1.92753,-3.55861 -2.02044,-5.71172 -0.0554,-1.28455 0.0654,-2.78421 0.22188,-2.75258 0.0545,0.011 0.29788,0.58686 0.54091,1.27966 1.39433,3.97475 3.31668,5.86761 7.55597,7.44006 2.03066,0.75323 5.51561,1.53569 9.02626,2.02664 1.08505,0.15174 2.66863,0.37279 3.51908,0.49121 1.74834,0.24346 2.60924,0.38689 5.11866,0.85276 4.76203,0.88407 8.6823,2.22313 12.06556,4.12128 1.165196,0.65372 1.157646,0.65733 1.157646,-0.55375 0,-1.09548 -0.11294,-1.99634 -0.44814,-3.57438 -0.863796,-4.0666 -3.377366,-7.9491 -6.791166,-10.48974 -1.94099,-1.44453 -3.21053,-2.13986 -6.35714,-3.4818 -4.4694,-1.90609 -5.83341,-2.77009 -8.1146,-5.14002 -2.68226,-2.7866 -4.54134,-6.72011 -5.35667,-11.33383 -0.4441,-2.513057 -0.49846,-3.163857 -0.49439,-5.918457 0.003,-2.28292 0.0427,-2.96743 0.24513,-4.26556 0.39927,-2.56064 0.87539,-4.835815 1.09969,-5.254927 0.084,-0.157034 0.13686,-0.171526 0.25818,-0.07084 0.12508,0.10381 0.15275,0.6278 0.15383,2.912797 0.002,3.41378 0.20695,5.77072 0.73519,8.43807 0.55587,2.80688 0.94936,4.130527 1.91688,6.447987 0.97979,2.34688 1.94929,3.82896 3.56112,5.44391 1.80099,1.80448 3.87233,2.98778 6.84876,3.91251 3.969,1.23312 7.37466,2.75132 9.67308,4.31214 1.63523,1.11047 3.268806,2.6691 4.436236,4.23272 1.1999,1.60711 1.74148,2.67326 2.73372,5.38159 0.10313,0.28149 0.24262,0.49358 0.30998,0.4713 0.0781,-0.0258 0.16744,-0.65541 0.24663,-1.73816 0.15933,-2.17828 0.32744,-4.268 0.46257,-5.74992 0.0588,-0.64516 0.15198,-1.74888 0.20699,-2.45269 0.055,-0.70382 0.17154,-2.19143 0.25896,-3.30581 0.0874,-1.11437 0.21782,-2.79393 0.28978,-3.73236 0.16693,-2.17684 0.1671,-6.28396 3.3e-4,-8.21118 -0.21026,-2.429917 -0.55245,-4.978987 -1.02355,-7.624687 -0.24685,-1.38632 -0.39967,-5.01952 -0.26827,-6.3779 0.4142,-4.28201 1.64882,-8.494716 3.53291,-12.054856 0.79526,-1.502693 1.07102,-1.932257 1.24152,-1.933945 0.18161,-0.0018 0.17294,0.05892 -0.13804,0.966411 -0.23017,0.671657 -0.56957,1.978932 -1.00848,3.884335 -0.53031,2.302177 -0.69111,6.317339 -0.37353,9.326695 0.33965,3.21839 0.78101,5.3312 2.09174,10.01328 1.10725,3.955197 1.34627,5.099217 1.68528,8.066217 0.16224,1.41998 0.3217,5.0965 0.34458,7.94459 0.023,2.86888 0.0569,3.3058 0.25594,3.3058 0.0778,0 0.36251,-0.32937 0.63261,-0.73194 0.94978,-1.41562 3.06577,-3.47416 4.69443,-4.56698 0.57891,-0.38844 3.09164,-1.66215 4.15891,-2.10815 1.85241,-0.77411 3.41022,-1.25575 5.70518,-1.76389 0.85044,-0.18831 1.83419,-0.406 2.18609,-0.48377 3.67209,-0.81152 4.39758,-1.06795 5.83738,-2.06328 2.43451,-1.68298 3.68327,-3.89826 4.13963,-7.343687 0.0719,-0.54252 0.16791,-0.98641 0.21345,-0.98641 0.19795,0 0.5086,0.75873 0.63006,1.53886 0.36211,2.325737 0.31019,3.625737 -0.21326,5.339357 -0.58115,1.90254 -2.06496,3.86944 -3.72905,4.94315 -1.12525,0.72604 -3.15087,1.55902 -5.65186,2.32417 -4.40741,1.3484 -6.11125,2.09392 -8.69106,3.80279 -2.29553,1.52056 -4.42255,3.67443 -5.70678,5.77882 -1.64559,2.69653 -2.69398,5.89378 -3.0506,9.30334 -0.16025,1.53207 -0.16147,1.84873 -0.0139,3.58596 0.16869,1.98555 0.2239,2.15352 0.66671,2.02825 0.1173,-0.0332 1.05306,-0.46956 2.07945,-0.96973 2.03294,-0.99067 3.35764,-1.51695 5.4919,-2.18187 1.57856,-0.49178 3.57869,-1.03306 4.05228,-1.09662 0.17595,-0.0236 0.82378,-0.14015 1.43962,-0.25898 0.61584,-0.11882 1.47962,-0.26678 1.9195,-0.3288 0.43989,-0.062 1.32765,-0.18937 1.97282,-0.28299 1.50234,-0.218 2.3153,-0.32442 3.5724,-0.46765 6.21941,-0.70859 10.10225,-1.78825 12.84998,-3.57308 2.67851,-1.73986 4.15974,-4.04506 4.75155,-7.3947 0.13976,-0.79108 0.2943,-0.99993 0.57035,-0.77083 0.44856,0.37227 0.56878,3.89676 0.18301,5.36515 -0.45313,1.72479 -1.13377,2.97447 -2.29778,4.21885 -2.06562,2.20822 -5.52355,3.80429 -10.03202,4.63046 -0.50517,0.0926 -0.74647,0.18523 -0.74647,0.28665 0,0.0932 0.62455,0.40493 1.6529,0.82494 0.9091,0.3713 1.74888,0.71897 1.86618,0.77261 0.11731,0.0536 0.44545,0.20051 0.72922,0.32639 0.28377,0.12588 1.26751,0.56624 2.18609,0.97858 0.91859,0.41234 2.07806,0.91803 2.57659,1.12376 0.49854,0.20573 1.72222,0.73372 2.71929,1.17331 2.28814,1.00878 2.30894,1.01804 3.16902,1.40997 0.39398,0.17954 1.01782,0.45252 1.38631,0.60663 0.36848,0.15411 1.16764,0.51528 1.77591,0.80261 0.60826,0.28732 1.14068,0.52241 1.18315,0.52241 0.0425,0 0.16511,0.0971 0.27253,0.21579 0.47403,0.52381 -0.46126,0.51933 -2.98817,-0.0143 -1.37715,-0.29083 -6.53652,-1.75912 -7.73132,-2.20022 -0.55718,-0.20571 -1.70888,-0.60298 -2.55933,-0.88284 -0.85044,-0.27985 -2.31406,-0.77348 -3.25248,-1.09696 -2.31658,-0.79852 -5.22369,-1.62906 -6.45165,-1.84317 -1.34703,-0.23488 -4.48153,-0.24056 -5.81182,-0.0105 -2.06044,0.35627 -3.94832,0.95144 -5.51709,1.73933 -4.24894,2.13394 -7.23004,5.55217 -8.31263,9.53152 -0.21829,0.80235 -0.2466,1.14518 -0.2466,2.98588 0,2.21691 0.0981,2.93624 0.65452,4.79875 0.42524,1.42345 1.55097,4.18191 2.80251,6.86726 1.38074,2.96253 1.48214,3.2058 1.9602,4.70306 0.85009,2.66238 1.19914,5.46106 0.9842,7.89127 -0.29245,3.30658 -1.2244,6.09693 -3.21296,9.61987 -1.96813,3.48676 -2.60169,5.36869 -2.60187,7.72863 -2.5e-4,3.26432 1.42994,5.8866 4.70026,8.61805 1.59384,1.33122 2.51307,2.20634 2.41771,2.30171 -0.12347,0.12347 -34.826536,0.15912 -34.902716,0.0358 z m -4.82422,-50.48049 c -0.11717,-0.14896 -0.30438,-0.7359 -0.43367,-1.35965 -0.69818,-3.36825 -0.38277,-5.28632 1.21572,-7.39308 1.05217,-1.38672 2.87563,-2.53304 4.26794,-2.68305 l 0.54043,-0.0582 0.18141,0.47501 c 0.401,1.05 0.54298,2.01912 0.5435,3.70973 4.6e-4,1.49673 -0.0255,1.73014 -0.27526,2.47032 -0.53099,1.57387 -1.70731,2.96812 -3.45001,4.08916 -0.91121,0.58615 -1.8248,1.01188 -2.17147,1.01188 -0.11683,0 -0.3052,-0.11795 -0.41859,-0.2621 z m 43.150806,-0.2589 c -1.27356,-0.50473 -2.86365,-1.67654 -3.75746,-2.76904 -1.08822,-1.33012 -1.6658,-2.92661 -1.6658,-4.60439 0,-1.21061 0.45571,-3.60341 0.72702,-3.81736 0.25719,-0.20282 1.42981,-0.10548 2.16345,0.17959 1.70108,0.66098 3.22573,2.24643 3.99734,4.15673 0.31339,0.77586 0.5769,1.99624 0.5769,2.67168 0,0.54588 -0.31293,2.37184 -0.61425,3.58408 -0.18341,0.7379 -0.18982,0.74675 -0.55877,0.77072 -0.20528,0.0133 -0.59607,-0.0641 -0.86843,-0.17201 z m 15.33449,-1.72839 c -1.0408,-0.29673 -2.89503,-1.14649 -3.7679,-1.72678 -1.96193,-1.30429 -3.49031,-3.58727 -3.87037,-5.78128 -0.18746,-1.08216 -0.11235,-4.2905 0.10373,-4.43121 0.30566,-0.19904 2.12815,0.0831 3.3058,0.51178 2.22994,0.81172 4.21301,2.72185 5.06499,4.87868 0.52534,1.32994 0.73171,2.57966 0.73967,4.47933 0.009,2.09897 -0.0343,2.29543 -0.50141,2.28516 -0.1895,-0.004 -0.67303,-0.10122 -1.07451,-0.21568 z m -73.831916,-0.37689 c -0.0469,-0.16846 -0.0823,-1.14607 -0.0787,-2.17247 0.007,-1.99534 0.15346,-2.8428 0.74113,-4.28907 0.71252,-1.75352 2.3009,-3.3921 4.37097,-4.50912 0.37011,-0.19972 1.46654,-0.57081 2.18609,-0.7399 0.8617,-0.2025 1.53613,-0.21103 1.69348,-0.0214 0.066,0.0795 0.17099,0.65101 0.23328,1.26995 0.25776,2.56113 -0.35712,4.90292 -1.77385,6.75576 -1.33479,1.74569 -2.88687,2.77924 -5.41078,3.60313 -0.45567,0.14874 -1.06425,0.30172 -1.35241,0.33994 -0.50919,0.0676 -0.52631,0.0609 -0.6092,-0.23679 z m -16.45434,-16.13221 c -1.03431,-0.2293 -1.4404,-0.37185 -1.546,-0.54272 -0.19699,-0.31872 1.41395,-2.11576 2.59015,-2.88936 1.65991,-1.09175 3.46075,-1.52132 5.37966,-1.28324 0.60182,0.0747 1.21419,0.19427 1.36082,0.26578 0.40234,0.19622 0.31245,0.58774 -0.37061,1.61433 -0.90033,1.3531 -2.04814,2.23165 -3.62834,2.77715 -0.81188,0.28026 -2.65582,0.30855 -3.78568,0.0581 z m 104.932586,-0.48892 c -1.43628,-0.24214 -2.7905,-0.94044 -3.79485,-1.95681 -0.62645,-0.63396 -1.43045,-1.69918 -1.43045,-1.89522 0,-0.49522 1.87181,-1.0339 3.57427,-1.02862 1.58403,0.005 3.27332,0.64274 4.72445,1.78385 0.85924,0.67566 1.9623,1.93439 1.91417,2.18431 -0.0402,0.20871 -0.86235,0.5085 -2.05502,0.74934 -1.38458,0.2796 -2.02911,0.31545 -2.93257,0.16315 z m -34.23106,-4.82061 c -1.56542,-0.16838 -3.48929,-0.6526 -3.86565,-0.97295 -0.10264,-0.0874 -0.18662,-0.26015 -0.18662,-0.38395 0,-0.58106 1.81406,-3.06562 3.15242,-4.31759 2.15239,-2.01345 4.32839,-3.16275 7.19154,-3.79836 1.22597,-0.27216 4.6699,-0.33587 5.97178,-0.11047 0.55719,0.0965 1.07669,0.23879 1.15445,0.31627 0.5873,0.58515 -2.28676,5.14384 -4.31933,6.8511 -1.28141,1.07633 -2.69155,1.77776 -4.49226,2.23455 -0.86694,0.21991 -1.23356,0.2533 -2.62052,0.23862 -0.88691,-0.009 -1.78053,-0.0351 -1.98581,-0.0572 z m 16.7423,-2.69833 c -0.18088,-0.18087 -0.21328,-0.35546 -0.21328,-1.14916 0,-2.05828 0.41189,-4.08583 1.12051,-5.51576 1.3945,-2.81399 3.79348,-4.66135 7.20237,-5.54626 0.89926,-0.23344 2.07427,-0.37756 2.45591,-0.30123 l 0.34153,0.0683 -0.0661,1.23668 c -0.0762,1.42499 -0.37293,3.17386 -0.70545,4.15744 -1.22065,3.61065 -4.12563,6.24799 -7.76969,7.05383 -1.25346,0.27719 -2.08611,0.27584 -2.36579,-0.004 z m -69.848426,-0.60977 c -2.4432,-0.27783 -5.15774,-2.34275 -6.44089,-4.89951 -0.55954,-1.11491 -1.10183,-3.02378 -1.14628,-4.03489 l -0.0375,-0.85311 0.79286,-0.0317 c 0.92684,-0.0371 2.44555,0.26213 3.69358,0.72772 2.24819,0.83871 4.3962,2.73599 5.42963,4.79586 0.76354,1.5219 1.34762,3.65095 1.13164,4.12498 -0.11047,0.24245 -0.14121,0.24693 -1.58123,0.23019 -0.80771,-0.009 -1.63652,-0.0362 -1.8418,-0.0595 z m 15.04745,-0.25368 c -1.57194,-0.24055 -3.69204,-1.53358 -4.55407,-2.77748 l -0.30423,-0.43901 0.36537,-0.30503 c 0.8482,-0.7081 2.84298,-1.29831 4.37566,-1.29466 1.58902,0.004 2.94617,0.484 4.39409,1.55479 0.7503,0.55487 1.57694,1.38523 1.57694,1.58404 0,0.14392 -0.86485,0.73525 -1.54626,1.05723 -1.26351,0.59702 -2.90972,0.83401 -4.3075,0.62012 z m 73.351526,-0.13242 c -0.0268,-0.0246 -0.28865,-0.0712 -0.58191,-0.10356 -0.52415,-0.0578 -1.58002,-0.37942 -2.05405,-0.62557 -0.3111,-0.16154 -0.25465,-0.35896 0.36841,-1.28837 1.32916,-1.98268 3.89778,-3.38496 6.2004,-3.38496 0.67983,0 2.28632,0.27114 2.59947,0.43874 0.26215,0.14029 0.24067,0.32113 -0.12392,1.04337 -0.86327,1.71013 -2.61733,3.21657 -4.27102,3.6681 -0.5952,0.16251 -2.04827,0.334 -2.13738,0.25225 z M 59.184414,123.14671 c -0.76829,-0.1125 -2.42161,-0.974 -3.72839,-1.94275 -1.43348,-1.06269 -3.07897,-2.96523 -4.00168,-4.62682 -0.80181,-1.44388 -1.44639,-4.24453 -1.45227,-6.31008 -0.002,-0.72892 0.0265,-1.37425 0.0634,-1.43405 0.0922,-0.14914 0.49752,-0.13637 1.44092,0.0454 2.88394,0.55559 4.9075,1.83594 6.74367,4.26686 1.12719,1.49231 1.68327,2.98016 1.8727,5.01068 0.15484,1.65965 -0.16266,4.58271 -0.5331,4.90803 -0.0763,0.067 -0.25865,0.10422 -0.40528,0.0828 z m 63.023536,-5.45924 c 0,-0.15826 0.98387,-1.30076 1.55926,-1.81065 2.72878,-2.4182 6.7986,-3.84129 12.19715,-4.26498 0.79179,-0.0621 2.78327,-0.16411 4.42551,-0.22659 1.64223,-0.0625 3.17783,-0.1387 3.41244,-0.16936 l 0.42655,-0.0557 -0.24668,0.20058 c -0.63958,0.52003 -3.16353,1.25163 -5.61845,1.62856 -7.40636,1.1372 -11.26064,2.23093 -15.05581,4.27241 -1.04265,0.56086 -1.09997,0.58304 -1.09997,0.42578 z m -20.37007,-1.15958 c -0.77085,-0.45506 -2.056626,-1.77303 -2.596116,-2.66113 -0.63192,-1.04026 -0.95239,-2.14842 -1.00563,-3.47742 -0.0748,-1.86828 0.41821,-4.13085 0.91625,-4.2046 0.55995,-0.0829 2.828346,1.90773 3.521546,3.09036 0.904,1.54226 1.20626,3.53406 0.82431,5.43199 -0.19381,0.96308 -0.63567,2.07478 -0.85865,2.16035 -0.0755,0.029 -0.43628,-0.12382 -0.80171,-0.33955 z m 56.10596,-4.39363 c -0.86568,-0.12008 -2.51367,-0.58451 -3.47449,-0.97918 -0.88686,-0.36428 -2.3624,-1.21266 -2.4341,-1.39951 -0.10155,-0.26464 0.20802,-0.73298 1.04464,-1.58039 1.50076,-1.52013 2.77943,-2.34553 4.58546,-2.95999 2.32866,-0.79226 4.58927,-0.54979 7.35808,0.78923 1.26728,0.61287 2.32588,1.31688 2.51693,1.67386 0.10729,0.20047 0.022,0.31831 -0.83184,1.14974 -1.12564,1.09603 -2.6293,2.11802 -3.75468,2.55193 -1.76968,0.68232 -3.5723,0.95372 -5.01,0.75431 z m -15.5466,-3.40904 c -0.7541,-0.19767 -1.42086,-0.48013 -1.42086,-0.60194 0,-0.26019 0.81292,-1.48224 1.41452,-2.12643 1.26971,-1.3596 2.7424,-2.12774 4.68262,-2.4424 1.25212,-0.20307 1.84519,-0.20333 2.90115,-0.001 0.95992,0.18369 1.38322,0.35771 1.42649,0.58643 0.0619,0.32708 -0.80363,1.56958 -1.78704,2.56545 -0.83846,0.84908 -1.16929,1.10296 -1.91949,1.47302 -0.49854,0.24592 -1.19436,0.51569 -1.54627,0.5995 -0.92726,0.22082 -2.80915,0.19455 -3.75112,-0.0524 z m -54.580306,0.0289 c -0.57619,-0.1407 -2.05638,-0.69842 -2.63788,-0.99392 -2.73701,-1.39085 -4.52656,-3.93823 -4.98892,-7.10164 -0.18561,-1.269947 0.1079,-3.695697 0.4637,-3.832227 0.20428,-0.0784 1.79751,0.43626 2.76132,0.89196 1.12691,0.53282 2.63447,1.69231 3.35649,2.581537 0.72313,0.89061 1.3642,2.11779 1.65522,3.1686 0.19699,0.71129 0.23081,1.12093 0.23579,2.8565 0.007,2.47171 -0.0461,2.62446 -0.84572,2.42919 z m 30.899816,-1.05762 c -0.0447,-0.10919 -0.0788,-0.75039 -0.0758,-1.42488 0.009,-2.00736 0.43445,-3.06227 1.71979,-4.26265 1.14305,-1.06748 3.40879,-2.123507 4.03802,-1.88205 0.16736,0.0642 0.17998,0.18137 0.11948,1.10878 -0.0372,0.57033 -0.14363,1.32488 -0.23648,1.67679 -0.25071,0.95014 -0.92829,2.27111 -1.49264,2.90996 -0.87528,0.99082 -2.33025,1.82439 -3.48584,1.99708 -0.43431,0.0649 -0.51672,0.0476 -0.58652,-0.12303 z m 8.31086,-2.98658 c -0.36894,-0.0814 -0.45517,-0.44589 -0.29013,-1.22617 0.33365,-1.57747 1.06413,-3.05904 2.10385,-4.267077 0.85485,-0.99322 1.64668,-1.6065 2.80415,-2.17182 1.44329,-0.70491 2.07158,-0.83955 3.94564,-0.84552 l 1.59958,-0.005 0.0322,0.68242 c 0.0644,1.36651 -0.82329,3.625437 -1.94367,4.946087 -1.11292,1.31184 -2.681,2.32373 -4.1844,2.70019 -0.61905,0.15502 -3.59263,0.29172 -4.06718,0.18699 z M 69.848294,99.991253 c -1.08105,-0.40303 -1.53697,-0.6465 -2.33754,-1.2483 -1.52287,-1.14477 -2.50224,-3.07264 -2.66052,-5.23717 -0.10466,-1.43131 -0.0668,-1.63046 0.31033,-1.63046 0.46185,0 1.91313,0.55099 2.73087,1.0368 1.30517,0.77539 2.41568,2.0774 2.9225,3.42648 0.42906,1.14209 0.65707,2.98623 0.46009,3.721247 -0.0864,0.32257 -0.41948,0.30654 -1.42573,-0.0686 z m 32.418196,-0.0428 c -2.06489,-0.70619 -3.294426,-1.67819 -4.240116,-3.35197 -0.67862,-1.20109 -1.09463,-3.11115 -0.93322,-4.28473 0.0705,-0.51282 0.0922,-0.54308 0.38796,-0.54308 0.8096,0 2.47495,0.76882 3.590396,1.65752 1.75475,1.39805 2.60964,3.23622 2.62643,5.64724 0.01,1.410187 0.0542,1.383087 -1.43145,0.87502 z m 41.58708,-1.09077 c -0.0996,-0.12005 -0.1156,-0.41682 -0.0612,-1.13725 0.33914,-4.49247 2.76619,-7.819 6.62156,-9.07555 1.49869,-0.48845 2.10476,-0.6108 3.36303,-0.67889 1.65129,-0.0894 1.63755,-0.10312 1.36995,1.37111 -0.26242,1.44564 -0.52639,2.29293 -1.05208,3.37692 -1.73698,3.58172 -4.85596,5.7793 -8.79956,6.20001 -1.25838,0.13425 -1.28434,0.13323 -1.44168,-0.0563 z m -29.96706,-3.36339 c -0.22405,-0.41865 -0.25238,-2.02871 -0.055,-3.12505 0.33344,-1.85185 1.28483,-3.35522 2.75522,-4.35375 1.17259,-0.796287 2.88318,-1.42365 3.08468,-1.131309 0.15062,0.218523 0.0168,2.725019 -0.18674,3.498189 -0.10037,0.38123 -0.36966,1.08868 -0.59844,1.57211 -0.70297,1.48545 -2.29578,2.86766 -4.06704,3.52929 -0.75797,0.28313 -0.78663,0.28346 -0.9327,0.0105 z m 12.75457,-1.22722 c -0.23391,-0.2339 -0.21018,-0.57382 0.10608,-1.51984 0.42366,-1.26729 0.94799,-2.11235 1.90306,-3.06716 1.28645,-1.2861 2.65035,-2.02861 4.31097,-2.34689 0.91069,-0.174542 2.75453,-0.198685 3.16801,-0.0415 0.26801,0.1019 0.281,0.13763 0.21354,0.58747 -0.0823,0.54894 -0.47727,1.75609 -0.75124,2.29616 -0.43078,0.84915 -1.41931,2.07173 -2.15117,2.66048 -1.49108,1.19951 -2.78862,1.59884 -5.19518,1.59884 -1.16372,0 -1.46832,-0.0318 -1.60407,-0.16758 z m -41.407996,-0.20562 c -1.10946,-0.25504 -2.22578,-0.8716 -3.16171,-1.74627 -0.98212,-0.91785 -2.51895,-3.36759 -2.51895,-4.01527 0,-0.2888 0.29435,-0.43199 1.17303,-0.57065 3.38742,-0.534539 5.84373,0.0773 8.08963,2.01511 0.76922,0.6637 2.27612,2.45318 2.59933,3.08678 0.22785,0.44665 0.1452,0.55645 -0.55827,0.74171 -0.26393,0.0695 -0.83978,0.22289 -1.27967,0.34084 -1.06228,0.28483 -3.40096,0.36439 -4.34339,0.14775 z m 16.218656,-5.65342 c -3.558276,-1.05248 -5.630736,-3.485994 -5.997446,-7.042286 -0.0487,-0.472314 -0.0652,-1.018039 -0.0366,-1.212722 l 0.052,-0.353969 0.5669,0.06663 c 0.31179,0.03665 0.91733,0.191193 1.34563,0.343438 3.256616,1.157611 5.141856,3.649765 5.517686,7.293999 0.13167,1.27672 0.028,1.34152 -1.44812,0.90491 z m -30.963616,-0.5415 c -1.06165,-0.28194 -2.06877,-0.706486 -2.77261,-1.168768 -0.84143,-0.552658 -1.95651,-1.687338 -2.52969,-2.574157 -0.51269,-0.793235 -1.02655,-2.31423 -1.20899,-3.578572 -0.22644,-1.569273 -0.0154,-1.712975 1.76006,-1.198466 2.94528,0.853509 4.89558,2.82237 5.59728,5.650549 0.28068,1.1313 0.39323,2.502874 0.23036,2.807214 -0.14334,0.26782 -0.27376,0.27536 -1.07641,0.0622 z M 111.03509,84.91714 c -0.28486,-0.349874 -0.49282,-1.958978 -0.4858,-3.759019 0.008,-2.110996 0.19526,-3.060935 0.8812,-4.475511 1.19141,-2.456987 3.91319,-4.755 6.06181,-5.118006 0.38141,-0.06444 0.45352,-0.04307 0.58912,0.174576 0.25079,0.402561 0.41932,1.841747 0.41615,3.553806 -0.003,1.358477 -0.0435,1.75559 -0.27173,2.634599 -0.29113,1.121125 -0.91385,2.548501 -1.45494,3.334951 -0.95778,1.392077 -2.57503,2.697353 -4.24598,3.426891 -0.86815,0.379037 -1.31145,0.446794 -1.48983,0.227713 z m -7.68731,-6.003821 c -0.66939,-0.629708 -0.95158,-0.988962 -1.23951,-1.577998 -0.82433,-1.686407 -0.90114,-3.132665 -0.26646,-5.017364 0.1955,-0.580541 0.46016,-1.177256 0.58813,-1.326032 0.23242,-0.270209 0.23296,-0.270279 0.49337,-0.06418 0.48876,0.386823 1.57275,1.656088 1.88872,2.211544 0.50847,0.893835 0.69247,1.68691 0.69759,3.006805 0.004,0.92544 -0.0454,1.330583 -0.23208,1.919499 -0.28435,0.896999 -0.66185,1.585788 -0.89358,1.630414 -0.0943,0.01817 -0.55378,-0.328874 -1.03618,-0.78269 z"
       id="path1" /><path
       style="fill:#1a1a1a"
       d="m 126.40056,241.09502 c -0.18175,-0.34256 -1.63889,-5.63785 -1.63889,-5.95578 0,-0.15304 0.19659,-0.22526 0.61314,-0.22526 h 0.61313 l 0.55844,1.96855 c 0.30713,1.08271 0.6386,1.99417 0.73659,2.02547 0.10468,0.0334 0.41068,-0.76172 0.742,-1.92815 l 0.56385,-1.98507 0.55918,-0.0482 c 0.62314,-0.0538 0.50292,-0.29116 1.43614,2.83577 0.19231,0.64437 0.41013,1.17157 0.48404,1.17157 0.0739,0 0.25346,-0.41813 0.39898,-0.92917 0.14553,-0.51105 0.40828,-1.42002 0.5839,-2.01995 l 0.3193,-1.09077 h 0.63954 c 0.35175,0 0.63954,0.0432 0.63954,0.0961 0,0.0825 -1.5238,5.59779 -1.7035,6.16577 -0.0371,0.11724 -0.3349,0.20199 -0.7098,0.20199 h -0.6459 l -0.58795,-1.89875 c -0.32337,-1.04431 -0.64962,-1.96435 -0.725,-2.04453 -0.17224,-0.1832 -0.33239,0.198 -0.96086,2.28692 l -0.49832,1.65636 h -0.63375 c -0.4387,0 -0.67994,-0.087 -0.7838,-0.28279 z m 10.4808,-2.94913 v -3.23191 h 2.43417 2.43418 l -0.0506,0.52519 -0.0506,0.52518 -1.73715,0.0459 -1.73716,0.0459 v 0.72172 0.72171 h 1.45436 1.45437 v 0.48479 c 0,0.48364 -0.002,0.48479 -0.94938,0.48479 -0.52215,0 -1.17662,0.0454 -1.45436,0.10099 -0.48272,0.0966 -0.50499,0.13574 -0.50499,0.88878 v 0.78778 h 1.77756 1.77755 v 0.56559 0.56558 h -2.42394 -2.42393 z m 8.24138,-0.0128 v -3.24475 l 2.09753,0.0532 c 2.03544,0.0517 2.11055,0.0663 2.53706,0.49322 0.54739,0.54796 0.5874,1.37473 0.0985,2.03597 l -0.34099,0.46122 0.45048,0.42518 c 0.54415,0.51359 0.68365,1.11928 0.43398,1.88427 -0.29927,0.91694 -0.93456,1.13586 -3.29703,1.13616 l -1.97955,2.5e-4 z m 3.68075,2.02363 c 0.39567,-0.27714 0.48665,-1.01066 0.16523,-1.33208 -0.1154,-0.11541 -0.67152,-0.19392 -1.37356,-0.19392 h -1.17965 v 0.78105 c 0,0.42957 0.0485,0.82952 0.10773,0.88878 0.2165,0.2165 1.91913,0.10911 2.28025,-0.14383 z m -0.12564,-2.81876 c 0.74961,-0.74961 0.12316,-1.45437 -1.29277,-1.45437 h -0.96957 v 0.88878 0.88878 h 0.96957 c 0.75412,0 1.0414,-0.0718 1.29277,-0.32319 z m 9.69575,1.38127 v -2.65862 l -1.00998,-0.0481 c -1.00992,-0.0481 -1.00997,-0.0481 -1.06061,-0.57329 l -0.0506,-0.52519 h 2.56884 c 1.41286,0 2.60479,0.0359 2.64872,0.0799 0.0439,0.0439 0.0478,0.29844 0.009,0.56558 -0.0691,0.47094 -0.0977,0.48571 -0.94172,0.48571 h -0.87044 v 2.66633 2.66633 h -0.64638 -0.64638 z m 8.41703,2.29503 c -0.0768,-0.19997 -0.62034,-1.56125 -1.20797,-3.02505 -0.58763,-1.46381 -1.06842,-2.75455 -1.06842,-2.86833 0,-0.27098 1.03951,-0.27504 1.24589,-0.005 0.0849,0.1111 0.50531,1.13135 0.93433,2.26722 0.42901,1.13588 0.85611,2.03987 0.94909,2.00887 0.093,-0.031 0.52662,-1.05124 0.96363,-2.26722 l 0.79457,-2.21086 h 0.62657 c 0.3446,0 0.62812,0.0545 0.63003,0.1212 0.002,0.0667 -0.52478,1.52102 -1.17041,3.23191 l -1.17388,3.11072 h -0.69194 c -0.56849,0 -0.71684,-0.0649 -0.83149,-0.36359 z m -57.76039,-2.48014 c -1.63846,-0.29601 -4.31056,-0.97417 -5.12944,-1.30182 -0.4569,-0.18282 -0.61893,-0.33199 -0.56457,-0.51976 0.0419,-0.14485 0.30589,-1.06326 0.58656,-2.04091 0.69274,-2.41301 0.67178,-2.38064 1.35622,-2.09467 1.14927,0.4802 3.30871,1.01959 5.14412,1.28491 1.57332,0.22744 2.04242,0.2412 2.7157,0.0797 0.73543,-0.17642 0.80911,-0.23477 0.7645,-0.60538 -0.0922,-0.76602 -0.73427,-1.04551 -2.66574,-1.16042 -1.51765,-0.0903 -1.86164,-0.16655 -2.62304,-0.58157 -0.93308,-0.50861 -1.65241,-1.34864 -1.96443,-2.29408 -0.22739,-0.68899 -0.10861,-2.94488 0.19535,-3.7101 0.2018,-0.50803 0.18921,-0.53401 -0.7214,-1.48869 -2.2649,-2.3745 -2.6332,-5.2389 -1.09266,-8.49799 0.52526,-1.11122 1.58672,-2.27544 2.63435,-2.88939 0.90395,-0.52976 3.04614,-1.09476 4.00665,-1.05677 1.40997,0.0558 1.35241,0.0953 2.28205,-1.5653 0.47799,-0.85381 0.96053,-1.58898 1.07231,-1.63373 0.11179,-0.0447 0.40266,0.0457 0.64639,0.20093 0.89681,0.57129 2.44855,1.7772 2.45571,1.90843 0.004,0.0744 -0.39258,0.53199 -0.8814,1.01693 -0.48883,0.48494 -0.88878,0.94256 -0.88878,1.01693 0,0.0744 0.38488,0.4258 0.85529,0.78097 3.03748,2.29332 3.71645,7.68899 1.30504,10.37105 -1.1712,1.30266 -2.94529,2.06138 -5.20283,2.22508 -1.17508,0.0852 -1.37715,0.1455 -1.59333,0.47543 -0.32903,0.50217 -0.16621,0.86487 0.38887,0.86627 0.92272,0.002 3.20102,0.66625 3.96203,1.15459 1.7609,1.12997 2.72114,2.86082 2.72763,4.91666 0.008,2.65286 -1.46997,4.41433 -4.33007,5.15929 -1.15541,0.30095 -3.72693,0.29312 -5.44108,-0.0166 z m 5.46921,-17.658 c 0.60831,-0.35249 0.80326,-0.89544 0.66133,-1.84184 -0.13591,-0.90636 -0.64397,-1.69289 -1.36584,-2.11448 -0.78658,-0.45939 -2.66379,-0.54465 -3.41207,-0.15497 -0.71623,0.37298 -1.25052,1.17207 -1.3855,2.07215 -0.21619,1.44171 0.40408,2.15012 2.05843,2.35089 1.36679,0.16588 2.85132,0.0315 3.44365,-0.31175 z m 19.1817,10.2 c -0.0777,-0.15554 -0.30568,-0.69807 -0.50666,-1.20562 -0.56058,-1.41573 -0.62534,-1.43079 -2.04043,-0.47479 -1.49005,1.00665 -2.19561,1.21105 -3.86765,1.12049 -1.4855,-0.0805 -1.98164,-0.29537 -2.95554,-1.28019 -0.87193,-0.8817 -1.41885,-2.02997 -1.82176,-3.8248 -0.44391,-1.97743 -0.53563,-3.89898 -0.39705,-8.31745 l 0.12051,-3.84223 2.28453,0.0447 2.28452,0.0447 -0.0489,4.25894 c -0.0515,4.48976 0.0921,6.20966 0.61938,7.41636 0.20486,0.46882 0.39958,0.68678 0.61357,0.68678 0.53296,0 1.39049,-1.14824 2.00599,-2.68607 0.77179,-1.92829 1.02617,-2.94554 1.65187,-6.60569 l 0.52487,-3.07032 0.68617,-0.0505 c 0.8898,-0.0655 3.89843,0.23588 4.04293,0.40496 0.0613,0.0717 0.006,1.36653 -0.12172,2.87745 -0.12819,1.51092 -0.24182,4.01969 -0.25251,5.57505 -0.0216,3.14457 0.11629,3.89088 1.13274,6.13112 0.44022,0.97022 0.50585,1.24108 0.33984,1.40248 -0.18271,0.17764 -3.80868,1.67736 -4.05545,1.67736 -0.0539,0 -0.16159,-0.12725 -0.23928,-0.28279 z m 18.47423,-0.24239 c -0.06,-0.17965 -0.40561,-2.92595 -0.40676,-3.23192 -10e-4,-0.27114 -0.42264,-0.0851 -1.27853,0.56409 -2.30122,1.74551 -4.96574,2.62577 -6.7609,2.23354 -1.75149,-0.38268 -2.98138,-1.43744 -3.62789,-3.11127 -0.50987,-1.32009 -0.58131,-4.13489 -0.15386,-6.06212 0.36869,-1.6623 1.38347,-4.22479 2.13988,-5.40354 0.67066,-1.04514 2.14735,-2.38238 3.23565,-2.93009 1.55956,-0.78489 3.84878,-0.93083 5.29844,-0.33778 0.3025,0.12375 0.56612,0.20586 0.58582,0.18248 0.12655,-0.15024 0.40091,-2.35747 0.40866,-3.28767 0.005,-0.61487 0.0602,-1.4047 0.12245,-1.75519 l 0.11314,-0.63725 0.88752,0.0433 c 0.48814,0.0239 1.5719,0.12882 2.40836,0.23327 l 1.52083,0.1899 -0.0306,1.29277 c -0.0168,0.71102 -0.10076,1.83815 -0.18659,2.50473 -0.35528,2.75944 -0.68393,8.83543 -0.56884,10.51661 0.0522,0.76254 0.31138,2.755 0.57597,4.42769 0.26458,1.67268 0.48105,3.30571 0.48105,3.62895 v 0.5877 l -2.14114,0.28104 c -2.52205,0.33104 -2.53568,0.33141 -2.62271,0.0707 z m -5.75049,-5.64554 c 0.92395,-0.44241 3.35734,-2.91333 3.96056,-4.02165 0.50832,-0.93395 0.48669,-1.33529 -0.14509,-2.6919 -0.50637,-1.08732 -1.18854,-1.54328 -2.16078,-1.44428 -1.1606,0.11819 -2.17968,1.32957 -2.98272,3.54555 -0.39243,1.0829 -0.49663,1.66701 -0.56151,3.1476 l -0.0797,1.81795 h 0.6157 c 0.33863,0 0.94771,-0.15897 1.3535,-0.35327 z m -85.029138,5.59424 c -0.06666,-0.0681 -0.121197,-0.36702 -0.121197,-0.66433 v -0.54056 l -0.686782,0.12311 c -1.325313,0.23756 -4.65945,0.14392 -5.635482,-0.15828 -1.45175,-0.44949 -2.399884,-1.18244 -2.965859,-2.29273 -0.430978,-0.84546 -0.488422,-1.12103 -0.488422,-2.34313 0,-1.21951 0.06035,-1.5105 0.505106,-2.43537 0.645294,-1.34189 1.40464,-2.20181 2.554109,-2.8924 1.812116,-1.08869 3.389901,-1.35331 5.903303,-0.99006 0.574379,0.083 1.073421,0.12183 1.108982,0.0863 0.176654,-0.17666 -0.366032,-1.70846 -0.724443,-2.04484 -0.369024,-0.34634 -0.545218,-0.37988 -1.967465,-0.37454 -1.278851,0.005 -1.793802,0.0867 -2.839563,0.45166 -0.70258,0.24518 -1.335004,0.38798 -1.405387,0.31732 -0.236488,-0.2374 -1.420973,-4.32848 -1.291136,-4.45944 0.190063,-0.1917 1.677407,-0.56737 3.327559,-0.84048 2.621552,-0.43387 4.765601,-0.26814 6.212064,0.4802 1.031932,0.53388 2.193903,1.79832 2.738648,2.98016 0.870642,1.88888 1.036583,3.06009 0.917853,6.47817 -0.05711,1.64424 -0.188128,3.2804 -0.291142,3.63591 -0.108706,0.37516 -0.177926,1.61103 -0.164965,2.94532 0.01228,1.26442 -0.02803,2.32921 -0.08958,2.3662 -0.222095,0.13349 -4.477948,0.2926 -4.596198,0.17184 z m -0.229115,-5.9801 c 0.177355,-0.0681 0.269514,-0.28841 0.269514,-0.6444 0,-0.49955 -0.0464,-0.54865 -0.605984,-0.64132 -0.333291,-0.0552 -0.808412,-0.1774 -1.055825,-0.27158 -0.695544,-0.26476 -1.971702,-0.0458 -2.621426,0.44976 -0.310551,0.23687 -0.564639,0.53112 -0.564639,0.65388 0,0.12277 -0.01818,0.27704 -0.0404,0.34283 -0.08006,0.23703 0.96139,0.34827 2.63921,0.2819 0.940519,-0.0372 1.831316,-0.11419 1.979548,-0.17107 z m 8.780226,5.96406 c -0.05925,-0.0592 -0.107731,-1.24455 -0.107731,-2.63401 0,-1.41921 -0.06879,-2.59507 -0.15698,-2.68326 -0.101578,-0.10158 -0.09676,-0.86237 0.01365,-2.15564 0.09385,-1.09926 0.133013,-2.40662 0.08704,-2.90526 -0.04597,-0.49863 -0.128078,-1.56106 -0.182456,-2.36096 -0.05438,-0.7999 -0.167792,-1.89067 -0.252031,-2.42394 -0.214589,-1.35843 -0.197219,-2.17931 0.04639,-2.19235 0.111097,-0.006 1.14733,-0.10407 2.30274,-0.21806 1.15541,-0.114 2.155285,-0.17756 2.221945,-0.14126 0.0667,0.0363 0.12119,0.27987 0.12119,0.54126 0,0.57052 0.12493,0.58328 1.38867,0.14185 1.35703,-0.47401 3.55269,-0.46724 5.03021,0.0155 0.60243,0.19683 1.1596,0.41679 1.23816,0.4888 0.0808,0.074 -0.15559,0.96035 -0.54417,2.04034 -0.37785,1.05019 -0.71565,2.00846 -0.75068,2.1295 -0.0427,0.14772 -0.20914,0.18987 -0.5062,0.1282 -0.24339,-0.0505 -0.85076,-0.17809 -1.34972,-0.28349 -1.07482,-0.22705 -1.55853,-0.13191 -2.23856,0.44029 -0.6386,0.53736 -1.04224,1.32915 -1.46721,2.87818 -0.30666,1.11779 -0.33172,1.57985 -0.28554,5.26383 l 0.0506,4.03849 -2.275806,-1.5e-4 c -1.251694,-8e-5 -2.324286,-0.0486 -2.383538,-0.10788 z m 13.867327,-0.0587 c -0.0566,-0.0915 -0.0995,-1.30956 -0.0954,-2.70673 0.0159,-5.45346 -0.13313,-10.86463 -0.34746,-12.61562 -0.15769,-1.28835 -0.17283,-1.85359 -0.0509,-1.90003 0.0955,-0.0364 1.14501,-0.15994 2.33231,-0.27463 1.92605,-0.18604 2.16695,-0.18155 2.23509,0.0417 0.042,0.13762 0.14057,0.41154 0.21904,0.60873 l 0.14267,0.35852 1.09655,-0.41538 c 1.00217,-0.37964 1.24953,-0.40861 2.8741,-0.33663 1.62872,0.0722 3.124497,0.39951 3.537577,0.77418 0.0822,0.0745 -0.1435,0.90095 -0.525187,1.92339 -0.36809,0.98599 -0.66925,1.89032 -0.66925,2.00961 0,0.46847 -0.41217,0.5935 -1.06177,0.32208 -0.34206,-0.14292 -1.03231,-0.26929 -1.5339,-0.28082 -0.7678,-0.0177 -1.0055,0.0504 -1.50364,0.43033 -0.71483,0.54522 -1.25546,1.5783 -1.62267,3.10068 -0.22736,0.94259 -0.26537,1.80962 -0.22493,5.13081 l 0.0487,3.99655 -2.374,-1.5e-4 c -1.45409,-9e-5 -2.41386,-0.0646 -2.47686,-0.16657 z m 84.70608,0.0587 c -0.0593,-0.0592 -0.10773,-0.358 -0.10773,-0.6639 0,-0.49499 -0.04,-0.54653 -0.36359,-0.46857 -0.19998,0.0482 -1.19985,0.13611 -2.22195,0.19539 -3.57448,0.20731 -5.89073,-0.74975 -6.85313,-2.83167 -0.26048,-0.56349 -0.33547,-1.04084 -0.33033,-2.10256 0.006,-1.18905 0.0706,-1.50183 0.48273,-2.3284 0.96938,-1.94424 2.62977,-3.2936 4.89528,-3.97826 1.08738,-0.32862 1.29943,-0.34305 2.59648,-0.17671 2.20426,0.28269 2.17389,0.28892 2.04103,-0.41927 -0.17089,-0.91094 -0.50196,-1.43307 -1.05354,-1.66154 -0.73843,-0.30586 -2.90167,-0.12269 -4.36353,0.36949 -0.6663,0.22433 -1.25834,0.37889 -1.31565,0.34347 -0.10962,-0.0677 -1.432,-4.12471 -1.432,-4.39326 0,-0.46564 4.39648,-1.22603 6.54954,-1.13277 1.95678,0.0848 3.02381,0.50463 4.28835,1.68745 0.935,0.87459 1.39598,1.68969 1.95023,3.44842 0.35177,1.11624 0.38052,1.46723 0.36396,4.44388 -0.0112,2.01385 -0.0984,3.59734 -0.23143,4.20149 -0.11739,0.53327 -0.21838,1.95127 -0.22441,3.15112 l -0.011,2.18154 -0.96957,0.10366 c -1.33711,0.14295 -3.55915,0.16162 -3.68977,0.031 z m 0.0135,-6.07384 c 0.1111,-0.0881 0.202,-0.36619 0.202,-0.61791 0,-0.40365 -0.0715,-0.4693 -0.60599,-0.55609 -0.33329,-0.0541 -0.77302,-0.1665 -0.97717,-0.24972 -0.90604,-0.36932 -2.31448,-0.0732 -3.06272,0.64397 -0.54331,0.52073 -0.4764,0.94716 0.16159,1.02999 0.85485,0.11099 4.06326,-0.0765 4.28229,-0.25024 z m -133.510012,5.81798 c -0.0866,-0.28133 -0.247625,-9.18302 -0.298272,-16.48871 -0.04174,-6.02119 -0.03777,-6.1071 0.285327,-6.1728 0.180212,-0.0366 1.291173,-0.11328 2.468802,-0.1703 l 2.141144,-0.10368 v 0.58023 c 0,0.31913 0.03411,0.58023 0.0758,0.58023 0.04169,0 0.618241,-0.35411 1.281226,-0.78691 1.578754,-1.03062 2.858684,-1.3819 4.650906,-1.27646 1.82822,0.10757 2.988824,0.57384 4.065731,1.63342 1.053929,1.03698 1.426241,1.81461 1.524186,3.18352 0.138239,1.93207 -0.717716,4.02895 -2.460192,6.02687 l -1.044206,1.19728 0.679951,1.33139 c 0.666756,1.30556 0.679943,1.36319 0.679545,2.96974 -3.72e-4,1.50183 -0.0428,1.72789 -0.509229,2.71315 -0.722313,1.52578 -2.090993,2.84841 -3.807221,3.67911 -2.187301,1.05871 -3.448547,1.30055 -6.797926,1.30344 -2.159594,0.002 -2.888843,-0.0477 -2.935572,-0.19952 z m 7.878525,-5.57725 c 1.001588,-0.54513 1.42751,-1.18501 1.367976,-2.05515 -0.03708,-0.54203 -0.115655,-0.66843 -0.498754,-0.80241 -0.53504,-0.18711 -2.011946,0.15071 -3.274043,0.7489 l -0.795905,0.37723 -0.04811,1.10355 c -0.02696,0.61844 0.02759,1.19478 0.124102,1.31107 0.243661,0.29359 2.059522,-0.10343 3.124738,-0.68319 z m -2.196235,-7.42882 c 1.02134,-0.46836 3.146927,-1.88521 4.037284,-2.69111 0.890626,-0.80615 1.72175,-2.27985 1.63388,-2.8971 -0.04458,-0.31313 -0.162916,-0.35821 -1.051944,-0.40072 -1.3355,-0.0639 -2.052558,0.31145 -3.605247,1.88694 -1.698987,1.72394 -2.260858,2.61915 -2.260858,3.60212 0,0.90126 0.198272,0.98074 1.246885,0.49987 z m 56.5236,12.23849 c -0.0549,-0.0889 -0.0609,-0.22473 -0.0132,-0.3019 0.0477,-0.0772 0.13472,-2.02237 0.193387,-4.32268 0.0587,-2.30031 0.1512,-5.70947 0.20562,-7.5759 l 0.0989,-3.39351 h 2.343125 2.34313 l 0.0533,1.21197 c 0.0568,1.29331 -0.23367,10.77015 -0.40246,13.12966 l -0.10116,1.41396 h -2.310407 c -1.365961,0 -2.351225,-0.0661 -2.410275,-0.1616 z m 1.631141,-18.14178 c -0.837697,-0.47902 -1.203804,-1.00981 -1.327324,-1.92434 -0.14164,-1.04878 0.378567,-2.12224 1.241924,-2.56269 0.885914,-0.45196 2.200971,-0.42857 2.914631,0.0518 1.54314,1.03879 1.41554,3.74102 -0.21153,4.47948 -0.92081,0.41791 -1.836517,0.40242 -2.617701,-0.0443 z"
       id="path2" /></g></svg>
