<?xml version="1.0" encoding="UTF-8" standalone="no"?>
<!-- Created with Inkscape (http://www.inkscape.org/) -->

<svg
   version="1.1"
   id="svg1"
   width="1507.2"
   height="345.28"
   viewBox="0 0 1507.2 345.28"
   sodipodi:docname="Logo_Barriguda_Vertical.svg"
   inkscape:version="1.4.2 (f4327f4, 2025-05-13)"
   xmlns:inkscape="http://www.inkscape.org/namespaces/inkscape"
   xmlns:sodipodi="http://sodipodi.sourceforge.net/DTD/sodipodi-0.dtd"
   xmlns:xlink="http://www.w3.org/1999/xlink"
   xmlns="http://www.w3.org/2000/svg"
   xmlns:svg="http://www.w3.org/2000/svg">
  <defs
     id="defs1">
    <linearGradient
       inkscape:collect="always"
       xlink:href="#linearGradient12"
       id="linearGradient13"
       x1="90.432793"
       y1="70.876289"
       x2="51.079128"
       y2="131.47562"
       gradientUnits="userSpaceOnUse" />
    <linearGradient
       id="linearGradient12"
       inkscape:collect="always">
      <stop
         style="stop-color:#007764;stop-opacity:1;"
         offset="0"
         id="stop12" />
      <stop
         style="stop-color:#00564c;stop-opacity:1;"
         offset="1"
         id="stop13" />
    </linearGradient>
    <inkscape:path-effect
       effect="fillet_chamfer"
       id="path-effect1"
       is_visible="true"
       lpeversion="1"
       nodesatellites_param="F,0,0,1,0,9.4697919,0,1 @ F,0,0,1,0,0,0,1 @ F,0,0,1,0,0,0,1 @ F,0,0,1,0,0,0,1"
       radius="0"
       unit="px"
       method="auto"
       mode="F"
       chamfer_steps="1"
       flexible="false"
       use_knot_distance="true"
       apply_no_radius="true"
       apply_with_radius="true"
       only_selected="false"
       hide_knots="false" />
    <linearGradient
       inkscape:collect="always"
       xlink:href="#linearGradient16"
       id="linearGradient17"
       x1="48.019753"
       y1="144.37312"
       x2="93.492165"
       y2="200.52687"
       gradientUnits="userSpaceOnUse" />
    <linearGradient
       id="linearGradient16"
       inkscape:collect="always">
      <stop
         style="stop-color:#009a27;stop-opacity:1;"
         offset="0"
         id="stop16" />
      <stop
         style="stop-color:#005115;stop-opacity:1;"
         offset="1"
         id="stop17" />
    </linearGradient>
    <inkscape:path-effect
       effect="fillet_chamfer"
       id="path-effect9"
       is_visible="true"
       lpeversion="1"
       nodesatellites_param="F,0,0,1,0,0,0,1 @ F,0,0,1,0,0,0,1 @ F,0,0,1,0,0,0,1 @ F,0,0,1,0,8.4655968,0,1"
       radius="0"
       unit="px"
       method="auto"
       mode="F"
       chamfer_steps="1"
       flexible="false"
       use_knot_distance="true"
       apply_no_radius="true"
       apply_with_radius="true"
       only_selected="false"
       hide_knots="false" />
    <linearGradient
       inkscape:collect="always"
       xlink:href="#linearGradient18"
       id="linearGradient19"
       x1="173.59445"
       y1="165.73355"
       x2="109.91118"
       y2="165.73355"
       gradientUnits="userSpaceOnUse" />
    <linearGradient
       id="linearGradient18"
       inkscape:collect="always">
      <stop
         style="stop-color:#ff871f;stop-opacity:1;"
         offset="0"
         id="stop18" />
      <stop
         style="stop-color:#9b5113;stop-opacity:1;"
         offset="1"
         id="stop19" />
    </linearGradient>
    <inkscape:path-effect
       effect="fillet_chamfer"
       id="path-effect12"
       is_visible="true"
       lpeversion="1"
       nodesatellites_param="F,0,0,1,0,0,0,1 @ F,0,0,1,0,0,0,1 @ F,0,0,1,0,8.5602869,0,1 @ F,0,0,1,0,0,0,1"
       radius="0"
       unit="px"
       method="auto"
       mode="F"
       chamfer_steps="1"
       flexible="false"
       use_knot_distance="true"
       apply_no_radius="true"
       apply_with_radius="true"
       only_selected="false"
       hide_knots="false" />
    <linearGradient
       inkscape:collect="always"
       xlink:href="#linearGradient14"
       id="linearGradient15"
       x1="109.91117"
       y1="94.704437"
       x2="179.74078"
       y2="94.704437"
       gradientUnits="userSpaceOnUse" />
    <linearGradient
       id="linearGradient14"
       inkscape:collect="always">
      <stop
         style="stop-color:#ffb929;stop-opacity:1;"
         offset="0"
         id="stop14" />
      <stop
         style="stop-color:#a07418;stop-opacity:1;"
         offset="1"
         id="stop15" />
    </linearGradient>
    <inkscape:path-effect
       effect="fillet_chamfer"
       id="path-effect11"
       is_visible="true"
       lpeversion="1"
       nodesatellites_param="F,0,0,1,0,0,0,1 @ F,0,0,1,0,9.2905278,0,1 @ F,0,0,1,0,0,0,1 @ F,0,0,1,0,0,0,1"
       radius="0"
       unit="px"
       method="auto"
       mode="F"
       chamfer_steps="1"
       flexible="false"
       use_knot_distance="true"
       apply_no_radius="true"
       apply_with_radius="true"
       only_selected="false"
       hide_knots="false" />
  </defs>
  <sodipodi:namedview
     id="namedview1"
     pagecolor="#ffffff"
     bordercolor="#000000"
     borderopacity="0.25"
     inkscape:showpageshadow="2"
     inkscape:pageopacity="0.0"
     inkscape:pagecheckerboard="0"
     inkscape:deskcolor="#d1d1d1"
     inkscape:zoom="0.28524478"
     inkscape:cx="965.83712"
     inkscape:cy="163.01788"
     inkscape:window-width="1360"
     inkscape:window-height="705"
     inkscape:window-x="-8"
     inkscape:window-y="-8"
     inkscape:window-maximized="1"
     inkscape:current-layer="g1" />
  <g
     inkscape:groupmode="layer"
     inkscape:label="Image"
     id="g1">
    <g
       id="g12"
       transform="matrix(2.4573526,0,0,2.4573526,-573.4614,-301.09049)"
       inkscape:export-filename="Logo_vertical_Barriguda_Moderna_branco.png"
       inkscape:export-xdpi="300"
       inkscape:export-ydpi="300">
      <path
         style="opacity:1;fill:url(#linearGradient13);stroke-width:0.288812"
         id="rect1"
         width="72.256416"
         height="77.801559"
         x="34.627758"
         y="62.275169"
         inkscape:path-effect="#path-effect1"
         sodipodi:type="rect"
         d="m 44.09755,62.275169 h 62.78662 V 140.07673 H 34.627758 V 71.744961 a 9.4697919,9.4697919 135 0 1 9.469792,-9.469792 z"
         transform="matrix(1,0,0,1.0285789,198.73778,58.655741)" />
      <path
         style="opacity:1;fill:url(#linearGradient17);fill-opacity:1;stroke-width:0.288396"
         id="rect9"
         width="72.256409"
         height="60.299606"
         x="34.627754"
         y="142.3002"
         inkscape:path-effect="#path-effect9"
         sodipodi:type="rect"
         d="m 34.627754,142.3002 h 72.256406 v 60.29961 H 43.093351 a 8.4655968,8.4655968 45 0 1 -8.465597,-8.4656 z"
         transform="translate(198.73778,60.435495)" />
      <path
         style="opacity:1;fill:url(#linearGradient19);stroke-width:0.328066"
         id="rect10"
         width="63.683262"
         height="73.732506"
         x="109.91117"
         y="128.86729"
         inkscape:path-effect="#path-effect12"
         sodipodi:type="rect"
         d="m 109.91117,128.86729 h 63.68326 v 65.17222 a 8.5602869,8.5602869 135 0 1 -8.56028,8.56029 h -55.12298 z"
         transform="matrix(1.1440466,0,0,1,179.87844,60.435495)" />
      <path
         style="opacity:1;fill:url(#linearGradient15);stroke-width:0.288396"
         id="rect11"
         width="69.829613"
         height="64.858559"
         x="109.91117"
         y="62.275158"
         inkscape:path-effect="#path-effect11"
         sodipodi:type="rect"
         d="m 109.91117,62.275158 h 60.53909 a 9.2905278,9.2905278 45 0 1 9.29052,9.290528 v 55.568034 h -69.82961 z"
         transform="matrix(1.0433484,0,0,1.0279227,190.9463,58.696601)" />
    </g>
    <path
       style="fill:#ffffff;stroke-width:2.45736"
       d="m 136.71879,345.4396 c -0.18381,-0.29726 2.95261,-3.31214 6.04004,-5.80613 4.74628,-3.83399 8.43465,-8.12988 9.97966,-11.62338 1.85484,-4.19415 2.71107,-9.53264 2.21317,-13.79897 -0.73574,-6.3044 -1.51415,-8.47579 -9.69945,-27.05658 -5.37804,-12.20823 -7.4642,-19.17156 -8.09791,-27.02953 -0.74138,-9.19334 2.20167,-18.2048 8.33176,-25.51135 1.37601,-1.6401 2.12108,-2.44044 8.17224,-8.77864 2.92825,-3.06717 6.01904,-6.67966 7.14978,-8.35662 0.3915,-0.58065 0.68725,-1.38568 0.68725,-1.87073 0,-0.9682 -1.69151,-6.03979 -2.87972,-8.63406 -3.64781,-7.96448 -10.2918,-15.08289 -18.49696,-19.81774 -7.63064,-4.4033 -19.35612,-7.17973 -28.15061,-6.66569 -7.15855,0.41843 -9.27932,0.94859 -25.199322,6.29923 -11.64183,3.91277 -23.54902,7.46607 -27.65134,8.25159 -6.01891,1.1525 -7.16679,1.16776 -6.48456,0.0863 0.2599,-0.41199 3.73889,-2.30137 6.14762,-3.33864 1.70786,-0.73549 3.88775,-1.6969 5.20616,-2.29615 1.24025,-0.56372 7.40387,-3.23963 11.03251,-4.78973 1.22509,-0.52334 2.58119,-1.11809 3.01357,-1.32171 1.65044,-0.77714 10.86082,-4.82839 13.36452,-5.8785 1.44125,-0.60448 2.97426,-1.25797 3.40662,-1.45217 0.4324,-0.19413 1.4491,-0.64478 2.25939,-1.00125 2.65756,-1.16919 2.40602,-1.38818 -2.78349,-2.42342 -5.94761,-1.18649 -8.73869,-2.097 -13.64599,-4.45169 -3.90098,-1.87179 -6.71382,-3.96504 -8.94406,-6.65588 -2.86682,-3.4589 -4.73662,-8.74477 -4.96493,-14.03571 -0.13614,-3.15659 0.16071,-6.84179 0.54524,-6.76407 0.13392,0.0271 0.73198,1.44213 1.3292,3.14458 3.42636,9.76736 8.15025,14.41878 18.56768,18.28285 4.99004,1.85096 13.553802,3.77374 22.180702,4.98017 2.66635,0.37287 6.55777,0.91608 8.64763,1.20708 4.29629,0.59826 6.41182,0.95072 12.57834,2.09553 11.702,2.17247 21.33548,5.46302 29.64934,10.12744 2.8633,1.60641 2.84475,1.61528 2.84475,-1.36076 0,-2.69199 -0.27754,-4.90572 -1.10124,-8.78352 -2.12264,-9.99306 -8.29938,-19.53374 -16.68829,-25.77699 -4.7697,-3.54971 -7.88941,-5.25839 -15.62173,-8.55601 -10.98289,-4.68393 -14.33475,-6.80708 -19.94044,-12.63084 -6.59126,-6.84765 -11.159672,-16.51367 -13.163232,-27.851216 -1.09131,-6.17545 -1.22489,-7.77471 -1.21488,-14.54373 0.007,-5.60994 0.1049,-7.29202 0.60236,-10.48199 0.98115,-6.29239 2.15115,-11.8833 2.70234,-12.9132 0.2064,-0.38589 0.3363,-0.4215 0.63444,-0.17408 0.30736,0.2551 0.37536,1.54273 0.37801,7.15777 0.005,8.38886 0.508542,14.1807 1.806612,20.73531 1.36598,6.89749 2.33293,10.15016 4.71045,15.844976 2.4077,5.76712 4.7901,9.40911 8.75093,13.37761 4.42568,4.43425 9.51568,7.34203 16.82982,9.61442 9.75323,3.03021 18.12215,6.76096 23.77017,10.59644 4.01833,2.72882 8.03262,6.55892 10.9014,10.40128 2.94857,3.94925 4.27943,6.56914 6.71771,13.22448 0.25342,0.69171 0.5962,1.21289 0.76173,1.15814 0.19192,-0.0635 0.41146,-1.61057 0.60606,-4.27127 0.39153,-5.3528 0.80463,-10.48798 1.1367,-14.12958 0.14448,-1.58539 0.37346,-4.29762 0.50864,-6.02713 0.13515,-1.72953 0.42153,-5.38511 0.63636,-8.12354 0.21477,-2.7384 0.53526,-6.86567 0.71208,-9.17172 0.41021,-5.34927 0.41063,-15.44191 6.6e-4,-20.177766 -0.51668,-5.97116 -1.35757,-12.23512 -2.51522,-18.73654 -0.6066,-3.40667 -0.98213,-12.33473 -0.65924,-15.67275 1.01783,-10.52241 4.05174,-20.87451 8.68161,-29.62303 1.95423,-3.69265 2.63187,-4.74823 3.05085,-4.75239 0.44628,-0.005 0.42497,0.14479 -0.33922,2.37482 -0.56561,1.6505 -1.39962,4.86293 -2.47819,9.54517 -1.30316,5.65726 -1.6983,15.52394 -0.91789,22.91898 0.83464,7.90872 1.91922,13.10064 5.14015,24.60616 2.72089,9.71932 3.30825,12.530576 4.14132,19.821546 0.39868,3.48938 0.79053,12.5239 0.84675,19.52265 0.0565,7.04986 0.13982,8.12353 0.62894,8.12353 0.19119,0 0.89081,-0.80939 1.55454,-1.79864 2.33395,-3.47868 7.53369,-8.53724 11.53588,-11.22268 1.42258,-0.95454 7.59725,-4.0845 10.2199,-5.18048 4.55203,-1.90226 8.38011,-3.08582 14.01964,-4.33449 2.08984,-0.46275 4.50725,-0.99769 5.372,-1.18879 9.02361,-1.9942 10.8064,-2.62434 14.3445,-5.07021 5.98245,-4.13568 9.05109,-9.579406 10.17253,-18.046026 0.17668,-1.33316 0.41262,-2.42397 0.52452,-2.42397 0.48644,0 1.24981,1.86449 1.54828,3.78154 0.88982,5.71515 0.76224,8.9097 -0.52405,13.120676 -1.42809,4.6752 -5.07435,9.50858 -9.1636,12.14706 -2.76513,1.78414 -7.7428,3.83106 -13.88861,5.71131 -10.83056,3.31348 -15.0175,5.14549 -21.35699,9.34479 -5.64094,3.73655 -10.86777,9.02937 -14.02358,14.2006 -4.04379,6.62633 -6.62006,14.48309 -7.49639,22.86158 -0.3938,3.76484 -0.39679,4.54299 -0.0342,8.81198 0.41453,4.87919 0.5502,5.29195 1.63834,4.98411 0.28825,-0.0816 2.58774,-1.15387 5.10994,-2.38296 4.99565,-2.43442 8.2509,-3.72767 13.49554,-5.36163 3.87907,-1.20846 8.7941,-2.53858 9.95788,-2.69477 0.43237,-0.058 2.02431,-0.3444 3.53766,-0.63641 1.51333,-0.29199 3.63594,-0.65557 4.71688,-0.80798 1.08096,-0.15235 3.2625,-0.46535 4.84792,-0.69541 3.69177,-0.5357 5.68951,-0.79721 8.77864,-1.14918 15.28328,-1.74124 24.82478,-4.39436 31.57692,-8.78031 6.58206,-4.27546 10.22196,-9.94015 11.67625,-18.17139 0.34344,-1.94397 0.7232,-2.45718 1.40154,-1.8942 1.10228,0.9148 1.3977,9.57571 0.44972,13.18406 -1.11349,4.23842 -2.78607,7.30933 -5.64645,10.36721 -5.07595,5.42637 -13.57331,9.34848 -24.65221,11.37867 -1.24138,0.22755 -1.83434,0.45518 -1.83434,0.7044 0,0.22903 1.53474,0.99506 4.06175,2.02717 2.23399,0.91241 4.29762,1.76676 4.58587,1.89857 0.28827,0.13172 1.09463,0.49273 1.79195,0.80206 0.69732,0.30933 3.11472,1.39145 5.37199,2.40471 2.25731,1.01327 5.10653,2.25593 6.33159,2.76149 1.22509,0.50554 4.23211,1.803 6.68226,2.88323 5.62276,2.47892 5.67388,2.50168 7.7874,3.46478 0.96815,0.4412 2.50114,1.11201 3.40665,1.49071 0.90549,0.37871 2.86931,1.26623 4.36404,1.97229 1.49471,0.70606 2.80305,1.28376 2.90742,1.28376 0.10443,0 0.40573,0.23861 0.6697,0.53027 1.16486,1.28718 -1.13349,1.27617 -7.34299,-0.0352 -3.38414,-0.71468 -16.06253,-4.32278 -18.99858,-5.40671 -1.36919,-0.50551 -4.19933,-1.48174 -6.28917,-2.16945 -2.08984,-0.68769 -5.68646,-1.90072 -7.9925,-2.69562 -5.69265,-1.96225 -12.83645,-4.00318 -15.85398,-4.52933 -3.31012,-0.57718 -11.0127,-0.59113 -14.28169,-0.0258 -5.06323,0.87548 -9.70241,2.33802 -13.55743,4.27415 -10.44114,5.24385 -17.76676,13.64364 -20.42706,23.42231 -0.53642,1.97165 -0.60599,2.81411 -0.60599,7.33736 0,5.44773 0.24107,7.21538 1.60839,11.79222 1.04496,3.49792 3.81128,10.27642 6.88675,16.87528 3.39297,7.27997 3.64214,7.87778 4.81691,11.55707 2.08897,6.54241 2.94671,13.41976 2.41852,19.39164 -0.71865,8.12543 -3.00878,14.9823 -7.89538,23.63941 -4.83638,8.5682 -6.39326,13.19276 -6.3937,18.99197 -6.2e-4,8.02159 3.51386,14.46545 11.55019,21.17759 3.91663,3.27127 6.17549,5.42175 5.94117,5.6561 -0.30341,0.30341 -85.58108,0.39103 -85.76828,0.088 z M 124.86397,221.39124 c -0.28792,-0.36604 -0.74796,-1.80837 -1.06567,-3.34114 -1.71568,-8.27698 -0.9406,-12.99036 2.98745,-18.1674 2.58555,-3.40766 7.06644,-6.22457 10.48783,-6.59321 l 1.32803,-0.14301 0.44578,1.16726 c 0.98541,2.58022 1.3343,4.96169 1.33559,9.11612 0.001,3.678 -0.0626,4.25157 -0.67643,6.07045 -1.30483,3.86755 -4.19545,7.29372 -8.47788,10.0485 -2.23917,1.44038 -4.48418,2.48655 -5.33607,2.48655 -0.28709,0 -0.74998,-0.28985 -1.02863,-0.64406 z m 106.03675,-0.63621 c -3.12959,-1.24029 -7.03699,-4.11985 -9.2334,-6.8045 -2.67414,-3.26859 -4.09346,-7.19172 -4.09346,-11.31461 0,-2.9749 1.11984,-8.85485 1.78654,-9.3806 0.63201,-0.4984 3.51355,-0.2592 5.31637,0.44132 4.18014,1.62425 7.92676,5.52026 9.82287,10.21455 0.77011,1.90656 1.41765,4.90546 1.41765,6.56525 0,1.34143 -0.76899,5.82845 -1.50944,8.80735 -0.45069,1.81328 -0.46645,1.83503 -1.37309,1.89393 -0.50445,0.0328 -1.46476,-0.15751 -2.13404,-0.42269 z m 37.68225,-4.24727 c -2.55762,-0.72916 -7.11412,-2.81733 -9.25905,-4.2433 -4.82116,-3.2051 -8.57692,-8.81519 -9.51087,-14.20665 -0.46065,-2.65924 -0.27608,-10.54326 0.2549,-10.88904 0.75111,-0.4891 5.22962,0.20421 8.12352,1.25763 5.47975,1.99468 10.35285,6.68855 12.44646,11.98863 1.29095,3.26813 1.79807,6.33913 1.81763,11.0073 0.0221,5.1579 -0.0843,5.64068 -1.23214,5.61544 -0.46567,-0.009 -1.65387,-0.24873 -2.64045,-0.53001 z M 87.151918,215.58162 c -0.1152,-0.41397 -0.20224,-2.8163 -0.19339,-5.33852 0.0172,-4.90326 0.37711,-6.98577 1.82121,-10.53976 1.75092,-4.30903 5.65413,-8.3356 10.74102,-11.0805 0.909492,-0.49079 3.603812,-1.40268 5.372002,-1.8182 2.11749,-0.49761 3.77481,-0.51857 4.16146,-0.0526 0.16219,0.19535 0.4202,1.59975 0.57326,3.1207 0.63341,6.2936 -0.87756,12.04822 -4.35897,16.60129 -3.28005,4.28978 -7.094062,6.82957 -13.296192,8.85416 -1.11975,0.36551 -2.61524,0.74144 -3.32335,0.83536 -1.25126,0.16612 -1.29334,0.14966 -1.49702,-0.58188 z m -40.4341,-39.64253 c -2.54168,-0.56347 -3.53957,-0.91376 -3.79908,-1.33365 -0.48407,-0.78321 3.47458,-5.19917 6.36491,-7.10019 4.07899,-2.68281 8.50429,-3.73841 13.21972,-3.15337 1.47889,0.18357 2.98369,0.47739 3.34401,0.65312 0.98871,0.48218 0.7678,1.44428 -0.91071,3.96698 -2.21243,3.32505 -5.033,5.48395 -8.91611,6.82444 -1.99507,0.68869 -6.52629,0.75821 -9.30274,0.14276 z m 257.856342,-1.20145 c -3.52943,-0.59503 -6.85723,-2.31099 -9.32528,-4.80857 -1.5394,-1.55787 -3.51512,-4.17549 -3.51512,-4.65723 0,-1.21693 4.5997,-2.54066 8.78325,-2.52768 3.89252,0.0123 8.0437,1.57944 11.60963,4.38355 2.11146,1.66034 4.82206,4.75348 4.7038,5.36762 -0.0988,0.51288 -2.11911,1.24957 -5.04992,1.8414 -3.40239,0.68707 -4.98623,0.77516 -7.20636,0.40091 z M 220.45638,162.8917 c -3.84679,-0.41377 -8.57441,-1.60366 -9.49926,-2.39088 -0.25222,-0.21477 -0.45859,-0.63928 -0.45859,-0.9435 0,-1.42786 4.45779,-7.53331 7.74661,-10.60984 5.28917,-4.94776 10.63638,-7.772 17.67215,-9.33392 3.01264,-0.66879 11.47558,-0.82534 14.67476,-0.27145 1.36921,0.23712 2.64581,0.58678 2.83689,0.77719 1.4432,1.43791 -5.61938,12.64021 -10.61411,16.83556 -3.14888,2.64493 -6.61409,4.36858 -11.03907,5.49108 -2.13038,0.54039 -3.03129,0.62245 -6.43954,0.58637 -2.17944,-0.0221 -4.37539,-0.0863 -4.87984,-0.14056 z m 41.14174,-6.63075 c -0.44449,-0.44446 -0.5241,-0.8735 -0.5241,-2.82389 0,-5.05792 1.01215,-10.04032 2.75348,-13.55416 3.42678,-6.91498 9.32192,-11.45458 17.69877,-13.62913 2.20979,-0.57364 5.09722,-0.92779 6.03503,-0.74022 l 0.83926,0.16783 -0.16243,3.03897 c -0.18725,3.50169 -0.91642,7.79929 -1.73354,10.21629 -2.99957,8.87264 -10.13812,15.35352 -19.09287,17.33375 -3.08018,0.68116 -5.12631,0.67784 -5.81357,-0.009 z M 89.955918,154.76253 c -6.00382,-0.68272 -12.6744,-5.75696 -15.82755,-12.03983 -1.37498,-2.73971 -2.70758,-7.43048 -2.81681,-9.91514 l -0.0922,-2.09639 1.94834,-0.0779 c 2.27756,-0.0911 6.00958,0.64414 9.07642,1.78826 5.5246,2.06101 10.80302,6.7233 13.34252,11.78512 1.87629,3.73984 3.31157,8.97167 2.78083,10.13653 -0.27145,0.59578 -0.34699,0.60679 -3.88563,0.56567 -1.98482,-0.0221 -4.0215,-0.0889 -4.52596,-0.14623 z m 36.976882,-0.62338 c -3.86281,-0.59111 -9.07265,-3.76855 -11.19095,-6.82524 l -0.74761,-1.07881 0.89785,-0.74957 c 2.08432,-1.74005 6.98621,-3.1904 10.75253,-3.18143 3.90478,0.009 7.23978,1.18936 10.79783,3.82067 1.84376,1.36351 3.8751,3.40399 3.8751,3.89255 0,0.35365 -2.12524,1.80676 -3.79971,2.59797 -3.10488,1.4671 -7.15021,2.04946 -10.58504,1.52386 z m 180.25056,-0.3254 c -0.0659,-0.0604 -0.70932,-0.17497 -1.42996,-0.25448 -1.28801,-0.14204 -3.88267,-0.93238 -5.04753,-1.53726 -0.76447,-0.39695 -0.62576,-0.88209 0.90532,-3.16597 3.26621,-4.87214 9.57822,-8.31804 15.23657,-8.31804 1.67058,0 5.6183,0.66629 6.38781,1.07814 0.6442,0.34474 0.59142,0.78913 -0.30451,2.56393 -2.12136,4.20238 -6.43171,7.90425 -10.49541,9.01381 -1.4626,0.39935 -5.03332,0.82076 -5.25229,0.61987 z M 60.344368,150.29821 c -1.88795,-0.27645 -5.95075,-2.39346 -9.16196,-4.77403 -3.52258,-2.61139 -7.56613,-7.28661 -9.83354,-11.36972 -1.97034,-3.54813 -3.5543,-10.4303 -3.56875,-15.50609 -0.005,-1.79121 0.0651,-3.37701 0.1558,-3.52397 0.22657,-0.36649 1.22258,-0.33511 3.54084,0.11162 7.08686,1.36527 12.05947,4.51154 16.57159,10.48517 2.76989,3.66714 4.13637,7.32331 4.60187,12.31301 0.3805,4.07835 -0.39971,11.26133 -1.31001,12.06076 -0.18749,0.16465 -0.63559,0.2561 -0.99591,0.20347 z M 215.21542,136.88293 c 0,-0.3889 2.41771,-3.19643 3.83165,-4.4494 6.70558,-5.94236 16.70655,-9.43941 29.97269,-10.48056 1.94571,-0.1526 6.83948,-0.40328 10.87504,-0.55681 4.03554,-0.15358 7.80905,-0.34084 8.38558,-0.41618 l 1.04818,-0.13687 -0.60619,0.49289 c -1.57166,1.2779 -7.77391,3.07569 -13.80651,4.00194 -18.20004,2.79451 -27.67136,5.48219 -36.99743,10.49883 -2.56216,1.37822 -2.70301,1.43273 -2.70301,1.04629 z m -50.05645,-2.84949 c -1.89425,-1.11824 -5.05385,-4.35696 -6.37957,-6.53934 -1.55285,-2.55628 -2.34036,-5.27942 -2.47119,-8.54524 -0.18381,-4.59103 1.0277,-10.15096 2.25155,-10.33219 1.376,-0.20372 6.95024,4.68796 8.65368,7.59411 2.22145,3.78987 2.96421,8.68443 2.02561,13.34831 -0.47625,2.36663 -1.56205,5.09846 -2.11,5.30874 -0.18552,0.0712 -1.07209,-0.30427 -1.97008,-0.83439 z m 137.87213,-10.7967 c -2.12728,-0.29509 -6.17697,-1.43635 -8.53805,-2.40619 -2.17933,-0.89517 -5.80525,-2.97994 -5.98144,-3.43909 -0.24955,-0.65032 0.51118,-1.80119 2.56705,-3.88358 3.68789,-3.73549 6.83004,-5.76379 11.2681,-7.27375 5.72233,-1.94685 11.27744,-1.35101 18.08138,1.93942 3.11416,1.50604 5.71551,3.23606 6.18498,4.11327 0.26366,0.49263 0.0541,0.7822 -2.04412,2.82532 -2.76608,2.69334 -6.46111,5.20472 -9.22656,6.27099 -4.34874,1.6767 -8.77841,2.34363 -12.31134,1.85361 z m -38.20347,-8.37722 c -1.8531,-0.48573 -3.49156,-1.17985 -3.49156,-1.47917 0,-0.63938 1.99763,-3.64239 3.47597,-5.22539 3.12013,-3.34102 6.73904,-5.2286 11.50685,-6.00185 3.0769,-0.499 4.53428,-0.49964 7.12914,-0.002 2.35888,0.45138 3.39907,0.87902 3.50539,1.44106 0.15212,0.80375 -1.9748,3.85701 -4.39138,6.30422 -2.0604,2.08648 -2.87335,2.71036 -4.71686,3.61973 -1.2251,0.6043 -2.93497,1.26723 -3.79973,1.47318 -2.2786,0.54264 -6.90308,0.47808 -9.21782,-0.12876 z m -134.12306,0.071 c -1.41591,-0.34576 -5.05325,-1.71627 -6.4822,-2.44241 -6.7258,-3.41782 -11.12337,-9.67762 -12.25954,-17.451226 -0.45611,-3.12071 0.26515,-9.08164 1.13947,-9.41715 0.502,-0.19265 4.41711,1.07205 6.78554,2.19187 2.76922,1.30932 6.47382,4.15861 8.24808,6.34374 1.77698,2.18854 3.35232,5.20416 4.06746,7.786366 0.48407,1.74789 0.56718,2.75452 0.57942,7.01943 0.0172,6.07386 -0.11324,6.44922 -2.07823,5.96938 z m 75.93174,-2.59895 c -0.10988,-0.26832 -0.19364,-1.84398 -0.18626,-3.50143 0.0221,-4.93279 1.06758,-7.52508 4.22612,-10.474826 2.80888,-2.62318 8.3766,-5.21821 9.92284,-4.62486 0.41127,0.15776 0.44227,0.44569 0.2936,2.72466 -0.0914,1.40149 -0.35295,3.2557 -0.58111,4.120456 -0.61608,2.33483 -2.28114,5.58092 -3.66794,7.1508 -2.15088,2.43479 -5.72625,4.48316 -8.56595,4.90753 -1.06725,0.15949 -1.26976,0.11697 -1.44128,-0.30233 z m 20.42272,-7.33908 c -0.90663,-0.20002 -1.11852,-1.0957 -0.71297,-3.01313 0.8199,-3.876396 2.61495,-7.517136 5.1699,-10.485716 2.10068,-2.44069 4.04649,-3.94773 6.8908,-5.33692 3.54667,-1.73221 5.0906,-2.06307 9.69582,-2.07775 l 3.93073,-0.0123 0.0791,1.67695 c 0.15826,3.35799 -2.02311,8.90897 -4.77628,12.15426 -2.73483,3.223666 -6.58815,5.710236 -10.28254,6.635326 -1.52123,0.38094 -8.82837,0.71687 -9.9945,0.4595 z M 86.549278,93.397094 c -2.65652,-0.99039 -3.77687,-1.58868 -5.74416,-3.06751 -3.74222,-2.8131 -6.14888,-7.55056 -6.53783,-12.86958 -0.25719,-3.51724 -0.16416,-4.00661 0.76259,-4.00661 1.13493,0 4.70123,1.35397 6.71071,2.54777 3.20727,1.90542 5.93617,5.10492 7.1816,8.42008 1.05436,2.80652 1.61466,7.33822 1.13061,9.14442 -0.21231,0.79267 -1.03081,0.75328 -3.50352,-0.16857 z m 79.662932,-0.10514 c -5.07416,-1.73536 -8.09556,-4.1239 -10.41945,-8.23697 -1.66762,-2.9515 -2.6899,-7.6452 -2.29326,-10.52909 0.17325,-1.26019 0.22657,-1.33454 0.95336,-1.33454 1.98947,0 6.08183,1.88926 8.82287,4.07311 4.31204,3.43549 6.41281,7.95253 6.45406,13.87726 0.0245,3.46532 0.1332,3.39872 -3.51758,2.15023 z m 102.19413,-2.68041 c -0.24476,-0.29501 -0.28408,-1.02427 -0.15039,-2.79463 0.83338,-11.03958 6.7975,-19.21403 16.27151,-22.30182 3.6828,-1.20029 5.17213,-1.50095 8.26414,-1.66826 4.0578,-0.21969 4.02404,-0.25341 3.36646,3.36929 -0.64486,3.55244 -1.29353,5.63453 -2.58534,8.29829 -4.26837,8.80154 -11.93281,14.20177 -21.62362,15.23561 -3.09228,0.32989 -3.15608,0.32739 -3.54271,-0.13835 z m -73.63963,-8.26507 c -0.55058,-1.02876 -0.62019,-4.98526 -0.13516,-7.67935 0.81938,-4.55064 3.15727,-8.24495 6.77054,-10.6987 2.88147,-1.95675 7.08499,-3.49841 7.58016,-2.78002 0.37012,0.53699 0.0413,6.69633 -0.45889,8.59628 -0.24664,0.93682 -0.90839,2.67527 -1.47058,3.86323 -1.72745,3.65028 -5.64154,7.04685 -9.99415,8.67272 -1.86261,0.69573 -1.93303,0.69656 -2.29198,0.0258 z m 31.34247,-3.01571 c -0.5748,-0.57478 -0.51648,-1.41008 0.26068,-3.73478 1.04107,-3.11418 2.32954,-5.19079 4.67648,-7.5371 3.16127,-3.1604 6.51285,-4.98501 10.59358,-5.76713 2.23789,-0.42891 6.76885,-0.48824 7.78491,-0.102 0.6586,0.2504 0.69053,0.3382 0.52475,1.44362 -0.20224,1.34894 -1.17282,4.31533 -1.84606,5.64247 -1.05858,2.08666 -3.48775,5.09097 -5.28619,6.53773 -3.6641,2.94762 -6.85263,3.92892 -12.76638,3.92892 -2.85967,0 -3.60818,-0.0782 -3.94177,-0.4118 z m -101.75404,-0.50528 c -2.72634,-0.62672 -5.46953,-2.14183 -7.76943,-4.29121 -2.41342,-2.25547 -6.18996,-8.27535 -6.18996,-9.86693 0,-0.70967 0.72332,-1.06154 2.88255,-1.40228 8.32408,-1.31355 14.3601,0.18995 19.87907,4.95183 1.89025,1.63095 5.59323,6.02834 6.38747,7.58531 0.55991,1.09758 0.35681,1.36739 -1.37186,1.82264 -0.64858,0.17079 -2.06364,0.54772 -3.1446,0.83756 -2.61041,0.69994 -8.35736,0.89544 -10.67324,0.36308 z m 39.85494,-13.89245 c -8.74392,-2.58632 -13.83669,-8.56631 -14.73783,-17.30538 -0.11967,-1.16064 -0.16022,-2.50168 -0.09,-2.98009 l 0.12778,-0.86982 1.39308,0.16373 c 0.76618,0.0901 2.2542,0.46982 3.30668,0.84396 8.00265,2.84465 12.63535,8.96876 13.5589,17.92392 0.32356,3.13736 0.0688,3.29658 -3.55854,2.22368 z m -76.088512,-1.33065 c -2.60885,-0.69283 -5.0837,-1.73609 -6.81329,-2.87207 -2.06768,-1.35808 -4.80783,-4.14639 -6.21633,-6.32561 -1.25986,-1.94928 -2.5226,-5.68689 -2.97092,-8.79382 -0.55643,-3.85625 -0.0379,-4.20938 4.3251,-2.94505 7.23758,2.09737 12.03016,6.93555 13.75448,13.88539 0.68973,2.78 0.96631,6.15044 0.56607,6.8983 -0.35223,0.65813 -0.67272,0.67667 -2.64511,0.15286 z m 99.638192,-7.24771 c -0.70001,-0.85975 -1.21103,-4.8139 -1.19378,-9.23722 0.0197,-5.18747 0.47982,-7.5218 2.16542,-10.99791 2.92771,-6.03768 9.61608,-11.68472 14.896,-12.57674 0.93726,-0.15836 1.11446,-0.10583 1.44768,0.42899 0.61628,0.98922 1.03042,4.52582 1.02262,8.73295 -0.007,3.33825 -0.10686,4.31411 -0.66773,6.47414 -0.71541,2.75499 -2.24566,6.26256 -3.5753,8.19515 -2.35361,3.42082 -6.32776,6.62835 -10.43387,8.42108 -2.13336,0.93143 -3.2227,1.09793 -3.66104,0.55956 z m -18.89043,-14.75349 c -1.64493,-1.54742 -2.33838,-2.43023 -3.04592,-3.87771 -2.02566,-4.14409 -2.21442,-7.69806 -0.65478,-12.32942 0.48041,-1.4266 1.13078,-2.89294 1.44525,-3.25853 0.57113,-0.664 0.57246,-0.66417 1.21238,-0.15772 1.20105,0.95056 3.86479,4.06959 4.64125,5.43455 1.24948,2.19647 1.70164,4.14533 1.71422,7.38878 0.009,2.27413 -0.11162,3.26971 -0.5703,4.71688 -0.69875,2.20424 -1.62639,3.89683 -2.19584,4.00651 -0.23173,0.0447 -1.36084,-0.80817 -2.54626,-1.92335 z"
       id="path1" />
    <path
       style="fill:#ffffff;stroke-width:7.79909"
       d="m 1138.9235,328.06561 c -1.4176,-2.67164 -12.782,-43.97015 -12.782,-46.4497 0,-1.19356 1.5334,-1.75683 4.782,-1.75683 h 4.7819 l 4.3554,15.35292 c 2.3953,8.44416 4.9804,15.55271 5.7447,15.79684 0.8164,0.2605 3.2028,-5.94072 5.7869,-15.03784 l 4.3976,-15.48174 4.3611,-0.37592 c 4.8598,-0.41959 3.9222,-2.27078 11.2005,22.11643 1.4999,5.02552 3.1987,9.1372 3.7752,9.1372 0.5764,0 1.9767,-3.26104 3.1116,-7.24669 1.1348,-3.98574 3.1841,-11.07487 4.5539,-15.75377 l 2.4902,-8.50704 h 4.9878 c 2.7434,0 4.9879,0.33693 4.9879,0.74949 0,0.64342 -11.8842,43.6577 -13.2857,48.08745 -0.2895,0.91436 -2.6121,1.57534 -5.536,1.57534 h -5.0372 l -4.5856,-14.80854 c -2.522,-8.14468 -5.0664,-15.32016 -5.6541,-15.94549 -1.3435,-1.4288 -2.5926,1.54422 -7.4939,17.83591 l -3.8867,12.91812 h -4.9426 c -3.4214,0 -5.3029,-0.67852 -6.1129,-2.20553 z m 81.7406,-23.00056 v -25.20597 h 18.9846 18.9843 l -0.3946,4.096 -0.3947,4.09593 -13.5482,0.35798 -13.5481,0.35799 v 5.62875 5.6287 h 11.3426 11.3427 v 3.78092 c 0,3.77197 -0.021,3.78092 -7.4043,3.78092 -4.0724,0 -9.1767,0.35407 -11.3427,0.78765 -3.7649,0.75338 -3.9383,1.05864 -3.9383,6.93168 v 6.14396 h 13.8631 13.8634 v 4.41108 4.41104 h -18.9044 -18.9047 z m 64.2756,-0.0999 v -25.30613 l 16.3586,0.4149 c 15.8747,0.40323 16.4604,0.5171 19.7869,3.84667 4.2691,4.2736 4.5811,10.72166 0.7682,15.87875 l -2.6595,3.59708 3.5133,3.31603 c 4.2441,4.00555 5.3319,8.72937 3.3849,14.6956 -2.3341,7.15131 -7.2887,8.8587 -25.7139,8.86103 l -15.4387,0.002 z m 28.7064,15.78247 c 3.0859,-2.16143 3.7955,-7.88222 1.2887,-10.389 -0.9001,-0.90012 -5.2374,-1.51242 -10.7127,-1.51242 h -9.2001 v 6.09148 c 0,3.35026 0.3782,6.46952 0.8402,6.9317 1.6886,1.68851 14.9674,0.85097 17.7839,-1.12176 z m -0.98,-21.98377 c 5.8464,-5.84628 0.9606,-11.34278 -10.0824,-11.34278 h -7.5617 v 6.93169 6.93168 h 7.5617 c 5.8817,0 8.1219,-0.55997 10.0824,-2.52059 z m 75.6183,10.77265 v -20.73483 l -7.8771,-0.37513 c -7.8764,-0.37515 -7.8769,-0.37515 -8.2717,-4.47115 l -0.3946,-4.09601 h 20.0346 c 11.019,0 20.3149,0.28 20.6577,0.62315 0.3423,0.34239 0.3726,2.32757 0.07,4.41101 -0.5389,3.67291 -0.762,3.7881 -7.3445,3.7881 h -6.7887 v 20.79497 20.79496 h -5.041 -5.0414 z m 65.6452,17.89918 c -0.599,-1.55959 -4.8381,-12.17635 -9.4213,-23.59267 -4.5829,-11.41639 -8.3325,-21.483 -8.3325,-22.37038 0,-2.11341 8.1071,-2.14508 9.717,-0.0391 0.6618,0.86645 3.9408,8.82351 7.2867,17.68226 3.3459,8.85884 6.6769,15.90912 7.402,15.66737 0.7253,-0.24177 4.1073,-8.19872 7.5155,-17.68227 l 6.197,-17.24272 h 4.8866 c 2.6876,0 4.8988,0.42507 4.9136,0.94526 0.02,0.52018 -4.0927,11.86258 -9.1281,25.20597 l -9.1551,24.26085 h -5.3965 c -4.4337,0 -5.5908,-0.50615 -6.4849,-2.83565 z m -450.4789,-19.34285 c -12.77841,-2.30863 -33.61851,-7.59763 -40.00511,-10.15302 -3.5634,-1.42585 -4.8271,-2.58922 -4.4031,-4.05366 0.3269,-1.12971 2.3857,-8.29247 4.5747,-15.91727 5.4027,-18.8193 5.2392,-18.56682 10.5773,-16.33652 8.9632,3.74513 25.8048,7.95188 40.11931,10.02113 12.2706,1.77384 15.9292,1.88115 21.1801,0.6216 5.7358,-1.3759 6.3103,-1.83101 5.9625,-4.72141 -0.719,-5.97427 -5.7266,-8.15405 -20.7904,-9.05023 -11.8363,-0.70427 -14.519,-1.29896 -20.4575,-4.53573 -7.27691,-3.9667 -12.88721,-10.51816 -15.32071,-17.89175 -1.7734,-5.37349 -0.8471,-22.96741 1.5237,-28.93543 1.5738,-3.96219 1.4756,-4.1648 -5.6263,-11.61044 -17.6641,-18.51896 -20.5366,-40.8587 -8.5217,-66.27666 4.0964,-8.66649 12.3749,-17.74637 20.5455,-22.53463 7.05,-4.13164 23.75701,-8.538126 31.24811,-8.241856 10.9965,0.43521 10.5477,0.74326 17.7981,-12.20792 3.7279,-6.65894 7.4911,-12.39259 8.363,-12.74161 0.8718,-0.34861 3.1405,0.35642 5.0413,1.56707 6.9943,4.45556 19.0964,13.86057 19.1523,14.88404 0.031,0.58024 -3.0618,4.14904 -6.8742,7.93113 -3.8124,3.782086 -6.9318,7.351106 -6.9318,7.931146 0,0.58023 3.0018,3.32085 6.6706,6.09084 23.6897,17.88583 28.9851,59.96718 10.1782,80.88482 -9.1343,10.15957 -22.9705,16.07692 -40.5775,17.35362 -9.1645,0.66449 -10.7403,1.13478 -12.4265,3.70794 -2.5661,3.91646 -1.2962,6.7452 3.0328,6.75612 7.1965,0.0164 24.9652,5.19616 30.9002,9.00475 13.7335,8.81274 21.2226,22.31181 21.2733,38.34551 0.062,20.68992 -11.4646,34.4278 -33.7707,40.2378 -9.0112,2.34714 -29.0668,2.28608 -42.4355,-0.12938 z m 42.6549,-137.71646 c 4.7441,-2.74909 6.2646,-6.98362 5.1577,-14.36468 -1.06,-7.06879 -5.0224,-13.20303 -10.6522,-16.49105 -6.1346,-3.58283 -20.7752,-4.24777 -26.6111,-1.2086 -5.5861,2.9089 -9.753,9.14108 -10.8057,16.16088 -1.6861,11.24404 3.1515,16.76898 16.0538,18.33482 10.6597,1.29371 22.2379,0.24566 26.8575,-2.43137 z m 149.6,79.55078 c -0.6061,-1.21305 -2.3843,-5.4443 -3.9516,-9.40274 -4.3721,-11.04141 -4.8771,-11.15887 -15.9134,-3.70292 -11.621,7.85096 -17.1239,9.44507 -30.1642,8.73881 -11.5856,-0.62783 -15.4552,-2.30363 -23.0507,-9.98433 -6.8003,-6.87647 -11.0658,-15.83194 -14.2081,-29.82998 -3.4619,-15.42218 -4.1774,-30.40854 -3.0965,-64.8686 l 0.9397,-29.96593 17.8173,0.34862 17.8173,0.3486 -0.3813,33.21589 c -0.4018,35.01609 0.7182,48.42976 4.8304,57.84091 1.5978,3.65639 3.1165,5.35629 4.7852,5.35629 4.1569,0 10.8447,-8.95526 15.6451,-20.94893 6.0192,-15.03894 8.0032,-22.97255 12.883,-51.51843 l 4.0936,-23.94573 5.3516,-0.39384 c 6.9396,-0.51084 30.4042,1.83965 31.5312,3.15831 0.478,0.55922 0.047,10.65771 -0.9494,22.44154 -0.9997,11.78379 -1.886,31.34994 -1.9695,43.48034 -0.1691,24.52481 0.9072,30.34535 8.8345,47.81719 3.4335,7.56684 3.9451,9.67929 2.6505,10.93808 -1.4251,1.38546 -29.7042,13.0819 -31.6289,13.0819 -0.4203,0 -1.2601,-0.99245 -1.8663,-2.2055 z m 144.0822,-1.89042 c -0.468,-1.4011 -3.1634,-22.81978 -3.1723,-25.20605 0,-2.11465 -3.2962,-0.66372 -9.9715,4.3994 -17.9473,13.61339 -38.7282,20.47864 -52.7289,17.41958 -13.66,-2.98455 -23.252,-11.21073 -28.2943,-24.2651 -3.9765,-10.29548 -4.5337,-32.2484 -1.1998,-47.27905 2.8754,-12.96444 10.7896,-32.94954 16.6889,-42.14273 5.2307,-8.15113 16.7476,-18.58041 25.2353,-22.85205 12.1633,-6.12144 30.0169,-7.25965 41.3232,-2.63438 2.3591,0.96512 4.415,1.6055 4.5687,1.42318 0.987,-1.17174 3.1268,-18.386136 3.1871,-25.640856 0.039,-4.79543 0.4696,-10.95539 0.9551,-13.68889 l 0.8823,-4.97 6.9218,0.33771 c 3.8072,0.18634 12.2597,1.00469 18.7831,1.8193 l 11.861,1.48105 -0.2384,10.08244 c -0.1321,5.54531 -0.7859,14.33592 -1.4554,19.53465 -2.7709,21.521126 -5.334,68.908356 -4.4363,82.020026 0.407,5.94716 2.4285,21.48652 4.492,34.532 2.0636,13.04538 3.7516,25.78153 3.7516,28.30255 v 4.58352 l -16.6988,2.19184 c -19.6697,2.58182 -19.776,2.5847 -20.4548,0.55141 z m -44.8485,-44.0301 c 7.2059,-3.45041 26.1841,-22.72134 30.8886,-31.36525 3.9644,-7.28396 3.7958,-10.41404 -1.1314,-20.99439 -3.9493,-8.48009 -9.2697,-12.0362 -16.8524,-11.26406 -9.0514,0.92177 -16.9993,10.36942 -23.2623,27.65208 -3.0606,8.44564 -3.8734,13.00117 -4.3794,24.54842 l -0.6215,14.17837 h 4.8018 c 2.641,0 7.3913,-1.23981 10.5561,-2.75517 z m -663.15065,43.63001 c -0.51987,-0.53111 -0.94517,-2.86243 -0.94517,-5.18117 v -4.21588 l -5.3563,0.96016 c -10.33625,1.85275 -36.33953,1.12244 -43.95169,-1.23446 -11.32234,-3.50562 -18.71694,-9.22196 -23.131,-17.88121 -3.36126,-6.59382 -3.80927,-8.74303 -3.80927,-18.27431 0,-9.51107 0.47068,-11.78053 3.93937,-18.99369 5.03271,-10.46553 10.95492,-17.17212 19.91975,-22.5581 14.13286,-8.49081 26.43816,-10.55458 46.04047,-7.72159 4.47962,0.64734 8.37167,0.95018 8.64902,0.67307 1.37772,-1.37778 -2.85469,-13.32445 -5.64999,-15.9479 -2.87803,-2.70113 -4.25221,-2.96272 -15.3445,-2.92107 -9.97386,0.0391 -13.99,0.67618 -22.14598,3.52253 -5.4795,1.91219 -10.41184,3.0259 -10.96076,2.47482 -1.84439,-1.85151 -11.08231,-33.75824 -10.06971,-34.77962 1.48233,-1.49507 13.08227,-4.42497 25.95196,-6.554956 20.44571,-3.38382 37.16739,-2.09127 48.44846,3.745126 8.04819,4.16377 17.11048,14.02527 21.35907,23.24254 6.79013,14.73157 8.08433,23.86595 7.15834,50.52387 -0.44536,12.82358 -1.46716,25.58417 -2.27057,28.35683 -0.84786,2.92589 -1.3877,12.56457 -1.28659,22.97082 0.0957,9.86135 -0.21866,18.16575 -0.69867,18.45423 -1.73214,1.0411 -34.92396,2.28201 -35.84624,1.3402 z m -1.78685,-46.63937 c 1.3832,-0.53113 2.10193,-2.24934 2.10193,-5.02576 0,-3.89602 -0.36184,-4.27895 -4.72612,-5.00168 -2.59935,-0.43051 -6.30491,-1.38357 -8.23449,-2.1181 -5.42462,-2.06489 -15.37747,-0.3572 -20.44474,3.50772 -2.42201,1.84738 -4.40367,4.14228 -4.40367,5.09967 0,0.95749 -0.14176,2.16067 -0.31509,2.67378 -0.6244,1.84862 7.49798,2.71617 20.58347,2.19855 7.3352,-0.29011 14.28257,-0.89057 15.43871,-1.33418 z m 68.4778,46.51428 c -0.46207,-0.46172 -0.84017,-9.70636 -0.84017,-20.54289 0,-11.06858 -0.53649,-20.23921 -1.22429,-20.92702 -0.79226,-0.79223 -0.7547,-6.72571 0.10642,-16.81204 0.7319,-8.57324 1.03735,-18.76948 0.67878,-22.65842 -0.35848,-3.88887 -0.99891,-12.17484 -1.42297,-18.41333 -0.42406,-6.23852 -1.3086,-14.74553 -1.96564,-18.90455 -1.67354,-10.59455 -1.53805,-16.99666 0.36184,-17.09837 0.86642,-0.0468 8.9481,-0.81162 17.95931,-1.70065 9.01112,-0.88911 16.80927,-1.38482 17.32914,-1.1017 0.52022,0.2831 0.94517,2.18273 0.94517,4.22133 0,4.44953 0.97434,4.54906 10.8304,1.10628 10.5836,-3.69682 27.7077,-3.64403 39.2311,0.12093 4.6984,1.53509 9.0438,3.25059 9.6565,3.8122 0.6301,0.57715 -1.2135,7.48986 -4.244,15.91281 -2.9469,8.19052 -5.5814,15.66417 -5.8546,16.60819 -0.3331,1.15207 -1.6311,1.48079 -3.9479,0.99983 -1.8983,-0.39386 -6.6352,-1.38892 -10.5267,-2.21098 -8.3826,-1.77077 -12.1551,-1.02876 -17.4587,3.43387 -4.9806,4.19094 -8.1285,10.36618 -11.4429,22.44721 -2.3917,8.71776 -2.5871,12.3214 -2.227,41.05312 l 0.3947,31.49659 -17.74927,-8.9e-4 c -9.76211,-6e-4 -18.12733,-0.37903 -18.58939,-0.84136 z m 108.15259,-0.45782 c -0.4413,-0.7136 -0.776,-10.21339 -0.744,-21.11004 0.124,-42.53206 -1.0383,-84.73431 -2.7099,-98.39043 -1.2298,-10.04799 -1.3478,-14.45635 -0.3969,-14.81853 0.7448,-0.28388 8.9301,-1.24739 18.1899,-2.14187 15.0214,-1.45092 16.9002,-1.41591 17.4316,0.32524 0.3276,1.07329 1.0964,3.20962 1.7084,4.74753 l 1.1127,2.79612 8.5521,-3.23958 c 7.8159,-2.96085 9.7452,-3.18678 22.4153,-2.62542 12.7027,0.56311 24.3683,3.11583 27.59,6.03794 0.641,0.58101 -1.1191,7.02657 -4.096,15.00068 -2.8708,7.68984 -5.2196,14.7428 -5.2196,15.67314 0,3.65364 -3.2145,4.62877 -8.2808,2.51194 -2.6678,-1.11463 -8.0512,-2.10021 -11.9631,-2.19014 -5.988,-0.13806 -7.842,0.39306 -11.7269,3.3562 -5.5751,4.2522 -9.7915,12.30929 -12.6554,24.18248 -1.7732,7.35137 -2.0697,14.11341 -1.7543,40.01569 l 0.3799,31.16949 -18.5151,-8.9e-4 c -11.3406,-6.5e-4 -18.826,-0.50381 -19.3173,-1.29908 z m 660.63101,0.45782 c -0.4624,-0.46172 -0.8402,-2.79208 -0.8402,-5.17783 0,-3.86047 -0.3121,-4.26243 -2.8356,-3.6544 -1.5597,0.37589 -9.3578,1.06151 -17.3293,1.52385 -27.8778,1.61682 -45.9424,-5.84737 -53.4482,-22.08446 -2.0317,-4.39473 -2.6164,-8.11761 -2.5763,-16.39808 0.047,-9.27353 0.5506,-11.71294 3.7649,-18.15941 7.5602,-15.16333 20.5099,-25.68711 38.1787,-31.02683 8.4806,-2.56294 10.1344,-2.6755 20.2501,-1.37818 17.1915,2.20471 16.9546,2.25331 15.9183,-3.26994 -1.3327,-7.10451 -3.9147,-11.17664 -8.2166,-12.9585 -5.7592,-2.38545 -22.6305,-0.95687 -34.0316,2.88168 -5.1965,1.74958 -9.8139,2.95499 -10.261,2.67876 -0.8549,-0.52799 -11.1682,-32.16903 -11.1682,-34.26346 0,-3.63157 34.2886,-9.561916 51.0804,-8.834586 15.2611,0.66136 23.5829,3.935666 33.4454,13.160576 7.292,6.82104 10.8873,13.17806 15.2099,26.89457 2.7434,8.70567 2.9678,11.44308 2.8386,34.65826 -0.087,15.70621 -0.7674,28.05599 -1.805,32.76781 -0.9156,4.15903 -1.7032,15.21814 -1.75,24.5759 l -0.087,17.01404 -7.5619,0.80845 c -10.4282,1.11488 -27.7581,1.26048 -28.7767,0.24178 z m 0.1049,-47.37047 c 0.8666,-0.68709 1.5754,-2.85595 1.5754,-4.81914 0,-3.1481 -0.5575,-3.66012 -4.7261,-4.337 -2.5994,-0.42193 -6.0289,-1.29855 -7.621,-1.94758 -7.0662,-2.88037 -18.051,-0.57091 -23.8865,5.02237 -4.2372,4.06123 -3.7153,7.38699 1.2602,8.03299 6.6672,0.86561 31.6899,-0.59662 33.398,-1.95164 z M 426.11067,245.51609 c -0.67542,-2.19411 -1.93127,-71.61927 -2.32626,-128.59705 -0.32554,-46.959846 -0.29457,-47.629866 2.22529,-48.142256 1.4055,-0.28546 10.06999,-0.88349 19.25443,-1.32819 l 16.69899,-0.80862 v 4.52529 c 0,2.48892 0.26603,4.52526 0.59117,4.52526 0.32516,0 4.82173,-2.76174 9.99241,-6.13717 12.31287,-8.03792 22.29517,-10.77758 36.27286,-9.95525 14.25848,0.83894 23.31013,4.47543 31.70904,12.7392 8.2197,8.0875 11.12339,14.15231 11.88725,24.82858 1.07815,15.068416 -5.59751,31.422156 -19.18725,47.004146 l -8.14386,9.33769 5.30299,10.38366 c 5.2001,10.18218 5.30294,10.63164 5.29985,23.16128 -0.002,11.71291 -0.33381,13.47598 -3.97154,21.16012 -5.63339,11.8997 -16.30785,22.21501 -29.69287,28.69372 -17.05898,8.25699 -26.89556,10.14312 -53.01771,10.16566 -16.84287,0.0164 -22.53036,-0.37201 -22.89479,-1.55607 z m 61.44536,-43.49751 c 7.81149,-4.25151 11.13331,-9.24202 10.669,-16.02832 -0.2892,-4.22733 -0.902,-5.21316 -3.88985,-6.25807 -4.17282,-1.45928 -15.69134,1.17542 -25.53456,5.84073 l -6.20734,2.94205 -0.37522,8.6067 c -0.21027,4.82328 0.21518,9.31821 0.96789,10.22519 1.90033,2.28973 16.06241,-0.80668 24.37013,-5.32828 z m -17.12842,-57.9381 c 7.96556,-3.65278 24.5432,-14.70292 31.48718,-20.98821 6.94609,-6.28725 13.42809,-17.78077 12.74277,-22.59476 -0.34766,-2.442136 -1.27059,-2.793726 -8.2042,-3.125266 -10.41569,-0.49836 -16.0081,2.42904 -28.11766,14.716436 -13.25058,13.44516 -17.63265,20.42699 -17.63265,28.09329 0,7.02899 1.54633,7.64886 9.72456,3.89851 z m 440.83298,95.44924 c -0.4281,-0.69335 -0.4749,-1.75269 -0.1031,-2.35455 0.3721,-0.60208 1.0507,-15.77266 1.5082,-33.713 0.458,-17.94033 1.1793,-44.5287 1.6038,-59.08517 l 0.7713,-26.46633 h 18.2743 18.2743 l 0.4155,9.45229 c 0.443,10.08663 -1.8222,83.99745 -3.1388,102.39949 l -0.7889,11.0276 h -18.0192 c -10.653,0 -18.3373,-0.5155 -18.7977,-1.26033 z m 12.7214,-141.489506 c -6.5333,-3.73592 -9.3886,-7.87559 -10.3518,-15.00809 -1.1046,-8.17957 2.9525,-16.55158 9.686,-19.98667 6.9092,-3.52489 17.1654,-3.34247 22.7313,0.40399 12.0353,8.10161 11.04,29.17657 -1.6497,34.9359 -7.1814,3.259316 -14.3231,3.138496 -20.4156,-0.34551 z"
       id="path2" />
  </g>
</svg>
