<?xml version="1.0" encoding="utf-8"?>
<!-- Generator: Adobe Illustrator 27.5.0, SVG Export Plug-In . SVG Version: 6.00 Build 0)  -->
<svg version="1.1" xmlns="http://www.w3.org/2000/svg" xmlns:xlink="http://www.w3.org/1999/xlink" x="0px" y="0px"
	 viewBox="0 0 2200 2200" style="enable-background:new 0 0 2200 2200;" xml:space="preserve">
<g id="background">
	<rect y="0" style="fill:#FFFFFF;" width="2200" height="2200"/>
</g>
<g id="Objects">
	<g>
		<path style="fill:#249B40;" d="M1005.532,834.751l-102.943,760.062c-5.06,37.362-36.959,65.232-74.663,65.232h-449.59
			c-37.704,0-69.602-27.87-74.663-65.232L200.731,834.751H1005.532z"/>
		<path style="fill:#249B40;" d="M1019.974,697.663H186.289c-20.041,0-36.287,16.246-36.287,36.287v33.073
			c0,20.041,16.246,36.287,36.287,36.287h833.684c20.041,0,36.287-16.246,36.287-36.287V733.95
			C1056.261,713.909,1040.015,697.663,1019.974,697.663z"/>
		<path style="fill:#249B40;" d="M476.865,666.222c0-69.735,0-126.267,126.267-126.267s126.267,56.532,126.267,126.267H476.865z"/>
		<g>
			<path style="fill:#FFFFFF;" d="M460.363,1109.673l37.81-66.56c9.581-16.865,27.582-27.341,46.978-27.341
				c9.538,0,18.936,2.536,27.18,7.334c8.239,4.793,15.086,11.712,19.801,20.008l8.309,14.627l-56.12,98.791L460.363,1109.673z"/>
			<path style="fill:#FFFFFF;" d="M754.706,1082.067l-38.989,57.658l-68.958,2.585l8.505-4.749l3.419-1.903l-55.982-98.549
				c-4.808-8.454-11.427-15.747-19.326-21.338h86.516c19.284,0,37.178,10.417,46.711,27.191l26.037,45.843l3.411-1.903
				L754.706,1082.067z"/>
			<path style="fill:#FFFFFF;" d="M510.501,1231.251l-8.429-5.111l-3.865-2.341l-58.037,97.354
				c-4.977,8.353-8.05,17.709-9.002,27.343l-42.736-75.224c-9.524-16.774-9.305-37.481,0.564-54.045l26.997-45.287l0.025,0.008
				l-3.874-2.349l-8.581-5.196l70.205,5.482L510.501,1231.251z"/>
			<path style="fill:#FFFFFF;" d="M497.023,1409.069c-19.398,0-37.398-10.477-46.977-27.341c-1.171-2.059-2.215-4.217-3.104-6.415
				c-2.694-6.659-4.021-13.67-3.945-20.839c0.061-5.946,1.099-11.812,3.085-17.437c1.187-3.358,2.71-6.609,4.53-9.663l8.614-14.449
				h113.618l0.727,96.145H497.023z"/>
			<path style="fill:#FFFFFF;" d="M798.907,1306.466l-42.736,75.224c-9.524,16.766-27.418,27.182-46.711,27.182h-51.527
				l-0.109,13.953l-30.938-62.516l31.881-61.363l-0.109,13.785h112.149C780.474,1312.731,790.15,1310.567,798.907,1306.466z"/>
			<path style="fill:#FFFFFF;" d="M753.986,1300.573l-58.176-97.593l82.213-49.854l39.197,65.753
				c9.931,16.66,10.149,37.486,0.569,54.351c-4.711,8.292-11.559,15.212-19.803,20.009c-8.237,4.796-17.635,7.332-27.178,7.334
				L753.986,1300.573z"/>
		</g>
	</g>
	<g>
		<path d="M1999.269,834.751l-102.943,760.062c-5.06,37.362-36.959,65.232-74.663,65.232h-449.59
			c-37.703,0-69.602-27.87-74.663-65.232l-102.943-760.062H1999.269z"/>
		<path d="M2013.711,697.663h-833.684c-20.041,0-36.287,16.246-36.287,36.287v33.073c0,20.041,16.246,36.287,36.287,36.287h833.684
			c20.041,0,36.287-16.246,36.287-36.287V733.95C2049.998,713.909,2033.752,697.663,2013.711,697.663z"/>
		<path d="M1470.601,666.222c0-69.735,0-126.267,126.267-126.267s126.267,56.532,126.267,126.267H1470.601z"/>
		<g>
			<path style="fill:#FFFFFF;" d="M1454.1,1109.673l37.81-66.56c9.581-16.865,27.582-27.341,46.978-27.341
				c9.538,0,18.936,2.536,27.18,7.334c8.239,4.793,15.086,11.712,19.801,20.008l8.309,14.627l-56.12,98.791L1454.1,1109.673z"/>
			<path style="fill:#FFFFFF;" d="M1748.443,1082.067l-38.989,57.658l-68.958,2.585l8.505-4.749l3.419-1.903l-55.982-98.549
				c-4.808-8.454-11.427-15.747-19.326-21.338h86.516c19.284,0,37.178,10.417,46.71,27.191l26.037,45.843l3.411-1.903
				L1748.443,1082.067z"/>
			<path style="fill:#FFFFFF;" d="M1504.238,1231.251l-8.429-5.111l-3.865-2.341l-58.037,97.354
				c-4.977,8.353-8.05,17.709-9.002,27.343l-42.736-75.224c-9.524-16.774-9.305-37.481,0.564-54.045l26.997-45.287l0.025,0.008
				l-3.874-2.349l-8.581-5.196l70.205,5.482L1504.238,1231.251z"/>
			<path style="fill:#FFFFFF;" d="M1490.76,1409.069c-19.398,0-37.398-10.477-46.977-27.341c-1.171-2.059-2.215-4.217-3.104-6.415
				c-2.694-6.659-4.021-13.67-3.945-20.839c0.061-5.946,1.099-11.812,3.085-17.437c1.187-3.358,2.71-6.609,4.53-9.663l8.614-14.449
				h113.618l0.727,96.145H1490.76z"/>
			<path style="fill:#FFFFFF;" d="M1792.644,1306.466l-42.736,75.224c-9.524,16.766-27.418,27.182-46.711,27.182h-51.527
				l-0.109,13.953l-30.938-62.516l31.881-61.363l-0.109,13.785h112.149C1774.211,1312.731,1783.887,1310.567,1792.644,1306.466z"/>
			<path style="fill:#FFFFFF;" d="M1747.723,1300.573l-58.176-97.593l82.213-49.854l39.197,65.753
				c9.931,16.66,10.149,37.486,0.569,54.351c-4.711,8.292-11.559,15.212-19.803,20.009c-8.237,4.796-17.635,7.332-27.178,7.334
				L1747.723,1300.573z"/>
		</g>
	</g>
</g>
</svg>
