<?xml version="1.0" encoding="utf-8"?>
<!-- Generator: Adobe Illustrator 27.5.0, SVG Export Plug-In . SVG Version: 6.00 Build 0)  -->
<svg version="1.1" xmlns="http://www.w3.org/2000/svg" xmlns:xlink="http://www.w3.org/1999/xlink" x="0px" y="0px"
	 viewBox="0 0 2200 2200" style="enable-background:new 0 0 2200 2200;" xml:space="preserve">
<g id="background">
	<rect style="fill:#FFFFFF;" width="2200" height="2200"/>
</g>
<g id="Objects">
	<g>
		<path style="fill:#2500F8;" d="M749.382,317c26.292,0,50.856,14.116,64.104,36.837l43.72,75.025l50.395-29.183L822.1,538.603
			l-159.162,2.761l48.682-28.194c0,0-66.062-113.352-66.061-113.352c0,0-28.358-48.649-28.358-48.649
			c-7.885-13.518-18.982-25.212-32.059-33.808c-0.18-0.119-0.357-0.243-0.538-0.36H749.382z"/>
		<path style="fill:#2500F8;" d="M381.56,486.135l73.849-126.714C470.658,333.255,498.942,317,529.222,317
			c4.662,0,9.304,0.384,13.879,1.139c10.064,1.66,19.799,5.116,28.69,10.229c9.696,5.569,18.199,13.002,25.017,21.809
			c2.273,2.935,4.358,6.023,6.238,9.246l23.547,40.396l-96.843,166.155L381.56,486.135z"/>
		<path style="fill:#2500F8;" d="M891.633,942.624c-13.002,23.887-37.971,38.727-65.165,38.727h-94.17v57.499L652.71,896.895
			l79.588-141.955v57.499H867.07h60.238c7.386,0,14.768-0.911,21.933-2.698c6.343-1.582,12.533-3.852,18.387-6.762L891.633,942.624z
			"/>
		<path style="fill:#2500F8;" d="M992.465,757.34c-5.169,9.498-12.466,17.783-21.127,24.243c-2.629,1.961-5.415,3.659-8.259,5.285
			c-10.039,5.74-21.697,8.749-33.229,9.142c-0.845,0.029-1.692,0.043-2.542,0.043h-50.822l-97.618-167.489l145.595-84.307
			l66.56,114.209c8.702,14.931,13.437,31.957,13.691,49.236C1004.967,724.984,1000.734,742.144,992.465,757.34z"/>
		<path style="fill:#2500F8;" d="M258.371,716.464c0.187-12.731,3.673-25.274,10.082-36.272L310,608.905l6.369-10.943
			l-39.913-22.595h152.068l77.013,129.692l-42.674-24.16l-4.35,7.307L393.294,800.12l-35.811,61.434
			c-3.44,5.903-6.201,12.199-8.229,18.723c-0.052,0.167-0.107,0.333-0.158,0.5c-1.612,5.294-2.736,10.711-3.359,16.21
			l-78.354-143.974C261.301,741.832,258.184,729.193,258.371,716.464z"/>
		<path style="fill:#2500F8;" d="M590.573,981.351H435.734c-27.193,0-52.163-14.839-65.165-38.727l-0.093-0.173
			c-0.055-0.105-0.111-0.21-0.168-0.315c-0.21-0.393-0.409-0.791-0.612-1.188c-5.325-10.406-8.149-22.095-8.149-33.785
			c0-13.109,3.491-26.027,10.093-37.359l33.44-57.365h185.493V981.351z"/>
	</g>
	<g>
		<path style="fill:#2500F8;" d="M352.849,1544.988h-75.97c0-90.244,35.136-175.096,98.951-238.911
			c63.815-63.815,148.667-98.951,238.911-98.951c0-22.776,0-45.976,0-45.976l96.789,83.961l-96.789,83.961v-45.976
			C470.325,1283.096,352.849,1400.572,352.849,1544.988z"/>
		<path style="fill:#2500F8;" d="M907.342,1713.919c19.723,11.381,39.811,22.981,39.811,22.981l-121.099,41.842l-24.325-125.789
			l39.811,22.981c72.215-125.073,29.219-285.545-95.854-357.745l37.985-65.802c78.147,45.129,134.072,117.987,157.433,205.148
			C964.451,1544.71,952.456,1635.772,907.342,1713.919z"/>
		<path style="fill:#2500F8;" d="M745.686,1771.787l37.985,65.802c-78.147,45.114-169.208,57.109-256.384,33.763
			c-87.161-23.361-160.019-79.286-205.148-157.433c-19.723,11.381-39.811,22.981-39.811,22.981l24.31-125.789l121.114,41.842
			l-39.811,22.981C460.142,1801.007,620.614,1844.003,745.686,1771.787z"/>
	</g>
	<g>
		<path style="fill:#2500F8;" d="M1391.404,1729.648l-38.506,60.17c-91.808-58.783-146.62-158.86-146.62-267.744
			c0-84.856,33.052-164.644,93.058-224.649c60.005-60.005,139.779-93.044,224.649-93.044c0-21.417,0-43.232,0-43.232l91.011,78.949
			l-91.011,78.949v-43.232c-135.795,0-246.272,110.463-246.272,246.258C1277.712,1606.478,1320.216,1684.081,1391.404,1729.648z"/>
		<path style="fill:#2500F8;" d="M1841.677,1522.075c0,84.856-33.052,164.644-93.058,224.649
			c-60.005,60.005-139.779,93.044-224.635,93.044c0,21.417,0,43.232,0,43.232l-91.011-78.949l91.011-78.949v43.232
			c135.781,0,246.258-110.463,246.258-246.258c0-84.403-42.504-162.006-113.691-207.573l38.52-60.17
			C1786.865,1313.114,1841.677,1413.192,1841.677,1522.075z"/>
	</g>
	<g>
		<path style="fill:#2500F8;" d="M1458.889,904.871v79.956h-230.113c-35.641,0-67.941-19.333-84.292-50.466
			c-16.25-30.916-14.421-66.759,4.898-95.889l91.711-138.374l-46.936-30.743l133.634-27.876l27.876,133.648l-47.7-31.233
			l-91.956,138.748c-2.996,4.524-3.285,9.652-0.807,14.45c2.435,4.725,7.722,7.779,13.427,7.779H1458.889z"/>
		<path style="fill:#2500F8;" d="M1615.544,848.312l-96.537,96.537l96.537,96.537v-56.56h230.791
			c35.641,0,67.941-19.333,84.292-50.466c16.25-30.916,14.421-66.759-4.884-95.889l-94.275-142.234l-67.509,42.859l95.14,143.545
			c2.997,4.524,3.285,9.652,0.807,14.45c-2.449,4.725-7.722,7.779-13.427,7.779h-230.935V848.312z"/>
		<path style="fill:#2500F8;" d="M1794.443,538.776l-26.681,133.677l-133.836-26.94l47.195-31.392l-131.631-198.607
			c-2.766-4.178-6.901-6.396-11.928-6.396c-5.042,0-9.162,2.219-11.943,6.411l-129.47,195.336l-67.508-42.859l130.335-196.647
			c17.518-26.421,46.893-42.196,78.587-42.196c31.68,0,61.054,15.775,78.573,42.182l131.559,198.506L1794.443,538.776z"/>
	</g>
</g>
</svg>
